<mxfile host="app.diagrams.net" modified="2021-12-17T07:18:54.838Z" agent="5.0 (Windows NT 10.0; Win64; x64) AppleWebKit/537.36 (KHTML, like Gecko) Chrome/96.0.4664.110 Safari/537.36" etag="TYzxhh8f0dW0k4laNKIa" version="15.9.6" type="github" pages="4">
  <diagram id="tOl0ABkByHtshgWfH36g" name="Use case">
    <mxGraphModel dx="1422" dy="762" grid="1" gridSize="10" guides="1" tooltips="1" connect="1" arrows="1" fold="1" page="1" pageScale="1" pageWidth="827" pageHeight="1169" math="0" shadow="0">
      <root>
        <mxCell id="6ccSIB_XnEU-StcTXxv1-0" />
        <mxCell id="6ccSIB_XnEU-StcTXxv1-1" parent="6ccSIB_XnEU-StcTXxv1-0" />
        <mxCell id="6ccSIB_XnEU-StcTXxv1-2" value="スマートお風呂" style="swimlane;" parent="6ccSIB_XnEU-StcTXxv1-1" vertex="1">
          <mxGeometry x="170" y="30" width="480" height="330" as="geometry" />
        </mxCell>
        <mxCell id="6ccSIB_XnEU-StcTXxv1-6" value="UC01&lt;br&gt;お風呂をためる" style="ellipse;whiteSpace=wrap;html=1;" parent="6ccSIB_XnEU-StcTXxv1-2" vertex="1">
          <mxGeometry x="60" y="40" width="120" height="50" as="geometry" />
        </mxCell>
        <mxCell id="6ccSIB_XnEU-StcTXxv1-7" value="UC02&lt;br&gt;お風呂を空にする" style="ellipse;whiteSpace=wrap;html=1;" parent="6ccSIB_XnEU-StcTXxv1-2" vertex="1">
          <mxGeometry x="50" y="100" width="140" height="60" as="geometry" />
        </mxCell>
        <mxCell id="6ccSIB_XnEU-StcTXxv1-8" value="UC03&lt;br&gt;&lt;font color=&quot;#990000&quot;&gt;&amp;lt;&amp;lt; variation point &amp;gt;&amp;gt;&lt;/font&gt;&lt;br&gt;デバイスを操作する" style="ellipse;whiteSpace=wrap;html=1;" parent="6ccSIB_XnEU-StcTXxv1-2" vertex="1">
          <mxGeometry x="50" y="180" width="140" height="80" as="geometry" />
        </mxCell>
        <mxCell id="6ccSIB_XnEU-StcTXxv1-14" value="&lt;font color=&quot;#000000&quot;&gt;UC03-1&lt;/font&gt;&lt;br&gt;&amp;lt;&amp;lt; variant &amp;gt;&amp;gt;&lt;br&gt;&lt;font color=&quot;#000000&quot;&gt;照明を操作する&lt;/font&gt;" style="ellipse;whiteSpace=wrap;html=1;fontColor=#990000;" parent="6ccSIB_XnEU-StcTXxv1-2" vertex="1">
          <mxGeometry x="260" y="70" width="140" height="60" as="geometry" />
        </mxCell>
        <mxCell id="6ccSIB_XnEU-StcTXxv1-19" value="&lt;font color=&quot;#000000&quot;&gt;UC03-2&lt;/font&gt;&lt;br&gt;&amp;lt;&amp;lt; variant &amp;gt;&amp;gt;&lt;br&gt;&lt;font color=&quot;#000000&quot;&gt;テレビを操作する&lt;/font&gt;" style="ellipse;whiteSpace=wrap;html=1;fontColor=#990000;" parent="6ccSIB_XnEU-StcTXxv1-2" vertex="1">
          <mxGeometry x="290" y="160" width="140" height="60" as="geometry" />
        </mxCell>
        <mxCell id="6ccSIB_XnEU-StcTXxv1-21" value="&lt;font color=&quot;#000000&quot;&gt;UC03-3&lt;/font&gt;&lt;br&gt;&amp;lt;&amp;lt; variant &amp;gt;&amp;gt;&lt;br&gt;&lt;font color=&quot;#000000&quot;&gt;スピーカーを操作する&lt;/font&gt;" style="ellipse;whiteSpace=wrap;html=1;fontColor=#990000;" parent="6ccSIB_XnEU-StcTXxv1-2" vertex="1">
          <mxGeometry x="290" y="250" width="170" height="60" as="geometry" />
        </mxCell>
        <mxCell id="dPjSfOcP8zVvjP9GSWTh-0" value="&amp;lt;&amp;lt;include&amp;gt;&amp;gt;" style="endArrow=open;startArrow=none;endFill=0;startFill=0;endSize=8;html=1;verticalAlign=bottom;dashed=1;labelBackgroundColor=none;rounded=0;exitX=1;exitY=0.5;exitDx=0;exitDy=0;entryX=0;entryY=0.5;entryDx=0;entryDy=0;" parent="6ccSIB_XnEU-StcTXxv1-2" source="6ccSIB_XnEU-StcTXxv1-8" target="6ccSIB_XnEU-StcTXxv1-14" edge="1">
          <mxGeometry width="160" relative="1" as="geometry">
            <mxPoint x="160" y="360" as="sourcePoint" />
            <mxPoint x="320" y="360" as="targetPoint" />
          </mxGeometry>
        </mxCell>
        <mxCell id="dPjSfOcP8zVvjP9GSWTh-2" value="&amp;lt;&amp;lt;include&amp;gt;&amp;gt;" style="endArrow=open;startArrow=none;endFill=0;startFill=0;endSize=8;html=1;verticalAlign=bottom;dashed=1;labelBackgroundColor=none;rounded=0;exitX=1;exitY=0.5;exitDx=0;exitDy=0;entryX=0;entryY=0.5;entryDx=0;entryDy=0;" parent="6ccSIB_XnEU-StcTXxv1-2" source="6ccSIB_XnEU-StcTXxv1-8" target="6ccSIB_XnEU-StcTXxv1-21" edge="1">
          <mxGeometry width="160" relative="1" as="geometry">
            <mxPoint x="210" y="240" as="sourcePoint" />
            <mxPoint x="280" y="120" as="targetPoint" />
          </mxGeometry>
        </mxCell>
        <mxCell id="6ccSIB_XnEU-StcTXxv1-3" value="User" style="shape=umlActor;verticalLabelPosition=bottom;verticalAlign=top;html=1;outlineConnect=0;" parent="6ccSIB_XnEU-StcTXxv1-1" vertex="1">
          <mxGeometry x="100" y="150" width="30" height="60" as="geometry" />
        </mxCell>
        <mxCell id="6ccSIB_XnEU-StcTXxv1-10" value="" style="endArrow=none;html=1;rounded=0;entryX=0;entryY=0.5;entryDx=0;entryDy=0;" parent="6ccSIB_XnEU-StcTXxv1-1" target="6ccSIB_XnEU-StcTXxv1-6" edge="1">
          <mxGeometry width="50" height="50" relative="1" as="geometry">
            <mxPoint x="140" y="160" as="sourcePoint" />
            <mxPoint x="440" y="100" as="targetPoint" />
          </mxGeometry>
        </mxCell>
        <mxCell id="6ccSIB_XnEU-StcTXxv1-11" value="" style="endArrow=none;html=1;rounded=0;entryX=0;entryY=0.5;entryDx=0;entryDy=0;" parent="6ccSIB_XnEU-StcTXxv1-1" target="6ccSIB_XnEU-StcTXxv1-7" edge="1">
          <mxGeometry width="50" height="50" relative="1" as="geometry">
            <mxPoint x="140" y="170" as="sourcePoint" />
            <mxPoint x="440" y="100" as="targetPoint" />
          </mxGeometry>
        </mxCell>
        <mxCell id="6ccSIB_XnEU-StcTXxv1-12" value="" style="endArrow=none;html=1;rounded=0;exitX=0;exitY=0.5;exitDx=0;exitDy=0;" parent="6ccSIB_XnEU-StcTXxv1-1" source="6ccSIB_XnEU-StcTXxv1-8" edge="1">
          <mxGeometry width="50" height="50" relative="1" as="geometry">
            <mxPoint x="390" y="150" as="sourcePoint" />
            <mxPoint x="140" y="180" as="targetPoint" />
          </mxGeometry>
        </mxCell>
        <mxCell id="dPjSfOcP8zVvjP9GSWTh-1" value="&amp;lt;&amp;lt;include&amp;gt;&amp;gt;" style="endArrow=open;startArrow=none;endFill=0;startFill=0;endSize=8;html=1;verticalAlign=bottom;dashed=1;labelBackgroundColor=none;rounded=0;entryX=0;entryY=0.5;entryDx=0;entryDy=0;" parent="6ccSIB_XnEU-StcTXxv1-1" target="6ccSIB_XnEU-StcTXxv1-19" edge="1">
          <mxGeometry width="160" relative="1" as="geometry">
            <mxPoint x="360" y="250" as="sourcePoint" />
            <mxPoint x="440" y="140" as="targetPoint" />
          </mxGeometry>
        </mxCell>
      </root>
    </mxGraphModel>
  </diagram>
  <diagram id="C5RBs43oDa-KdzZeNtuy" name="flow chart">
    <mxGraphModel dx="1422" dy="762" grid="1" gridSize="10" guides="1" tooltips="1" connect="1" arrows="1" fold="1" page="1" pageScale="1" pageWidth="827" pageHeight="1169" math="0" shadow="0">
      <root>
        <mxCell id="WIyWlLk6GJQsqaUBKTNV-0" />
        <mxCell id="WIyWlLk6GJQsqaUBKTNV-1" parent="WIyWlLk6GJQsqaUBKTNV-0" />
        <mxCell id="WIyWlLk6GJQsqaUBKTNV-4" value="Yes" style="rounded=0;html=1;jettySize=auto;orthogonalLoop=1;fontSize=11;endArrow=block;endFill=0;endSize=8;strokeWidth=1;shadow=0;labelBackgroundColor=none;edgeStyle=orthogonalEdgeStyle;" parent="WIyWlLk6GJQsqaUBKTNV-1" source="WIyWlLk6GJQsqaUBKTNV-6" edge="1">
          <mxGeometry y="20" relative="1" as="geometry">
            <mxPoint as="offset" />
            <mxPoint x="590" y="520" as="targetPoint" />
          </mxGeometry>
        </mxCell>
        <mxCell id="WIyWlLk6GJQsqaUBKTNV-5" value="No" style="edgeStyle=orthogonalEdgeStyle;rounded=0;html=1;jettySize=auto;orthogonalLoop=1;fontSize=11;endArrow=block;endFill=0;endSize=8;strokeWidth=1;shadow=0;labelBackgroundColor=none;" parent="WIyWlLk6GJQsqaUBKTNV-1" source="WIyWlLk6GJQsqaUBKTNV-6" target="WIyWlLk6GJQsqaUBKTNV-7" edge="1">
          <mxGeometry y="10" relative="1" as="geometry">
            <mxPoint as="offset" />
          </mxGeometry>
        </mxCell>
        <mxCell id="WIyWlLk6GJQsqaUBKTNV-6" value="ｎ≦5？" style="rhombus;whiteSpace=wrap;html=1;shadow=0;fontFamily=Helvetica;fontSize=12;align=center;strokeWidth=1;spacing=6;spacingTop=-4;" parent="WIyWlLk6GJQsqaUBKTNV-1" vertex="1">
          <mxGeometry x="540" y="400" width="100" height="80" as="geometry" />
        </mxCell>
        <mxCell id="WIyWlLk6GJQsqaUBKTNV-7" value="ブザーを鳴らす" style="rounded=1;whiteSpace=wrap;html=1;fontSize=12;glass=0;strokeWidth=1;shadow=0;" parent="WIyWlLk6GJQsqaUBKTNV-1" vertex="1">
          <mxGeometry x="690" y="420" width="120" height="40" as="geometry" />
        </mxCell>
        <mxCell id="WIyWlLk6GJQsqaUBKTNV-8" value="Yes" style="rounded=0;html=1;jettySize=auto;orthogonalLoop=1;fontSize=11;endArrow=block;endFill=0;endSize=8;strokeWidth=1;shadow=0;labelBackgroundColor=none;edgeStyle=orthogonalEdgeStyle;" parent="WIyWlLk6GJQsqaUBKTNV-1" edge="1">
          <mxGeometry y="20" relative="1" as="geometry">
            <mxPoint as="offset" />
            <mxPoint x="590" y="680" as="sourcePoint" />
            <mxPoint x="590" y="740" as="targetPoint" />
          </mxGeometry>
        </mxCell>
        <mxCell id="a-mf5xK-BU-butNcgJY_-0" value="" style="rounded=0;html=1;jettySize=auto;orthogonalLoop=1;fontSize=11;endArrow=block;endFill=0;endSize=8;strokeWidth=1;shadow=0;labelBackgroundColor=none;edgeStyle=orthogonalEdgeStyle;exitX=0.5;exitY=0;exitDx=0;exitDy=0;entryX=0.5;entryY=1;entryDx=0;entryDy=0;" parent="WIyWlLk6GJQsqaUBKTNV-1" source="WIyWlLk6GJQsqaUBKTNV-7" target="a-mf5xK-BU-butNcgJY_-14" edge="1">
          <mxGeometry relative="1" as="geometry">
            <mxPoint x="600" y="300" as="sourcePoint" />
            <mxPoint x="590" y="170" as="targetPoint" />
            <Array as="points" />
          </mxGeometry>
        </mxCell>
        <mxCell id="a-mf5xK-BU-butNcgJY_-1" value="" style="rounded=0;html=1;jettySize=auto;orthogonalLoop=1;fontSize=11;endArrow=block;endFill=0;endSize=8;strokeWidth=1;shadow=0;labelBackgroundColor=none;edgeStyle=orthogonalEdgeStyle;entryX=0.5;entryY=0;entryDx=0;entryDy=0;" parent="WIyWlLk6GJQsqaUBKTNV-1" target="a-mf5xK-BU-butNcgJY_-60" edge="1">
          <mxGeometry relative="1" as="geometry">
            <mxPoint x="590" y="80" as="sourcePoint" />
            <mxPoint x="590" y="250" as="targetPoint" />
          </mxGeometry>
        </mxCell>
        <mxCell id="a-mf5xK-BU-butNcgJY_-7" value="ｎ番目のLED点灯" style="rounded=1;whiteSpace=wrap;html=1;fontSize=12;glass=0;strokeWidth=1;shadow=0;" parent="WIyWlLk6GJQsqaUBKTNV-1" vertex="1">
          <mxGeometry x="530" y="520" width="120" height="40" as="geometry" />
        </mxCell>
        <mxCell id="a-mf5xK-BU-butNcgJY_-8" value="" style="rounded=0;html=1;jettySize=auto;orthogonalLoop=1;fontSize=11;endArrow=block;endFill=0;endSize=8;strokeWidth=1;shadow=0;labelBackgroundColor=none;edgeStyle=orthogonalEdgeStyle;exitX=0;exitY=0.5;exitDx=0;exitDy=0;entryX=0;entryY=0.5;entryDx=0;entryDy=0;" parent="WIyWlLk6GJQsqaUBKTNV-1" source="a-mf5xK-BU-butNcgJY_-9" target="a-mf5xK-BU-butNcgJY_-60" edge="1">
          <mxGeometry relative="1" as="geometry">
            <mxPoint x="760" y="370" as="sourcePoint" />
            <mxPoint x="530" y="270" as="targetPoint" />
            <Array as="points">
              <mxPoint x="430" y="640" />
              <mxPoint x="430" y="250" />
            </Array>
          </mxGeometry>
        </mxCell>
        <mxCell id="a-mf5xK-BU-butNcgJY_-11" value="No" style="edgeLabel;html=1;align=center;verticalAlign=middle;resizable=0;points=[];" parent="a-mf5xK-BU-butNcgJY_-8" vertex="1" connectable="0">
          <mxGeometry x="-0.8923" y="2" relative="1" as="geometry">
            <mxPoint as="offset" />
          </mxGeometry>
        </mxCell>
        <mxCell id="a-mf5xK-BU-butNcgJY_-9" value="3秒経った？" style="rhombus;whiteSpace=wrap;html=1;shadow=0;fontFamily=Helvetica;fontSize=12;align=center;strokeWidth=1;spacing=6;spacingTop=-4;" parent="WIyWlLk6GJQsqaUBKTNV-1" vertex="1">
          <mxGeometry x="540" y="600" width="100" height="80" as="geometry" />
        </mxCell>
        <mxCell id="a-mf5xK-BU-butNcgJY_-10" value="" style="rounded=0;html=1;jettySize=auto;orthogonalLoop=1;fontSize=11;endArrow=block;endFill=0;endSize=8;strokeWidth=1;shadow=0;labelBackgroundColor=none;edgeStyle=orthogonalEdgeStyle;exitX=0.5;exitY=1;exitDx=0;exitDy=0;entryX=0.5;entryY=0;entryDx=0;entryDy=0;" parent="WIyWlLk6GJQsqaUBKTNV-1" source="a-mf5xK-BU-butNcgJY_-7" target="a-mf5xK-BU-butNcgJY_-9" edge="1">
          <mxGeometry relative="1" as="geometry">
            <mxPoint x="600" y="360" as="sourcePoint" />
            <mxPoint x="600" y="410" as="targetPoint" />
          </mxGeometry>
        </mxCell>
        <mxCell id="a-mf5xK-BU-butNcgJY_-13" value="チェック開始" style="ellipse;whiteSpace=wrap;html=1;" parent="WIyWlLk6GJQsqaUBKTNV-1" vertex="1">
          <mxGeometry x="540" y="50" width="100" height="30" as="geometry" />
        </mxCell>
        <mxCell id="-Uq5ks_KmKbqLNOeUf3G-6" style="edgeStyle=orthogonalEdgeStyle;rounded=0;orthogonalLoop=1;jettySize=auto;html=1;exitX=0.5;exitY=0;exitDx=0;exitDy=0;labelBackgroundColor=#FFFFFF;fontSize=12;endArrow=block;endFill=0;endSize=8;" parent="WIyWlLk6GJQsqaUBKTNV-1" source="a-mf5xK-BU-butNcgJY_-14" edge="1">
          <mxGeometry relative="1" as="geometry">
            <mxPoint x="590" y="170" as="targetPoint" />
            <Array as="points">
              <mxPoint x="750" y="170" />
            </Array>
          </mxGeometry>
        </mxCell>
        <mxCell id="a-mf5xK-BU-butNcgJY_-14" value="ｎ←０" style="shape=parallelogram;html=1;strokeWidth=1;perimeter=parallelogramPerimeter;whiteSpace=wrap;rounded=1;arcSize=12;size=0.23;" parent="WIyWlLk6GJQsqaUBKTNV-1" vertex="1">
          <mxGeometry x="690" y="340" width="120" height="40" as="geometry" />
        </mxCell>
        <mxCell id="a-mf5xK-BU-butNcgJY_-62" style="edgeStyle=orthogonalEdgeStyle;rounded=0;orthogonalLoop=1;jettySize=auto;html=1;exitX=0.5;exitY=1;exitDx=0;exitDy=0;entryX=0.5;entryY=0;entryDx=0;entryDy=0;fontSize=12;endArrow=block;endFill=0;" parent="WIyWlLk6GJQsqaUBKTNV-1" source="a-mf5xK-BU-butNcgJY_-15" target="WIyWlLk6GJQsqaUBKTNV-6" edge="1">
          <mxGeometry relative="1" as="geometry" />
        </mxCell>
        <mxCell id="a-mf5xK-BU-butNcgJY_-15" value="ｎ←ｎ＋１" style="shape=parallelogram;html=1;strokeWidth=1;perimeter=parallelogramPerimeter;whiteSpace=wrap;rounded=1;arcSize=12;size=0.23;" parent="WIyWlLk6GJQsqaUBKTNV-1" vertex="1">
          <mxGeometry x="530" y="340" width="120" height="40" as="geometry" />
        </mxCell>
        <mxCell id="a-mf5xK-BU-butNcgJY_-16" value="チェック終了" style="ellipse;whiteSpace=wrap;html=1;" parent="WIyWlLk6GJQsqaUBKTNV-1" vertex="1">
          <mxGeometry x="540" y="740" width="100" height="30" as="geometry" />
        </mxCell>
        <mxCell id="a-mf5xK-BU-butNcgJY_-18" value="ｎ←０" style="shape=parallelogram;html=1;strokeWidth=1;perimeter=parallelogramPerimeter;whiteSpace=wrap;rounded=1;arcSize=12;size=0.23;" parent="WIyWlLk6GJQsqaUBKTNV-1" vertex="1">
          <mxGeometry x="530" y="110" width="120" height="40" as="geometry" />
        </mxCell>
        <mxCell id="a-mf5xK-BU-butNcgJY_-27" style="edgeStyle=orthogonalEdgeStyle;rounded=0;orthogonalLoop=1;jettySize=auto;html=1;exitX=0.5;exitY=1;exitDx=0;exitDy=0;entryX=0.5;entryY=0;entryDx=0;entryDy=0;endArrow=block;endFill=0;entryPerimeter=0;" parent="WIyWlLk6GJQsqaUBKTNV-1" source="a-mf5xK-BU-butNcgJY_-24" target="a-mf5xK-BU-butNcgJY_-30" edge="1">
          <mxGeometry relative="1" as="geometry" />
        </mxCell>
        <mxCell id="a-mf5xK-BU-butNcgJY_-24" value="起動" style="ellipse;whiteSpace=wrap;html=1;strokeColor=default;strokeWidth=1;" parent="WIyWlLk6GJQsqaUBKTNV-1" vertex="1">
          <mxGeometry x="135" y="50" width="70" height="30" as="geometry" />
        </mxCell>
        <mxCell id="a-mf5xK-BU-butNcgJY_-29" style="edgeStyle=orthogonalEdgeStyle;rounded=0;orthogonalLoop=1;jettySize=auto;html=1;exitX=0.5;exitY=1;exitDx=0;exitDy=0;entryX=0.5;entryY=0;entryDx=0;entryDy=0;endArrow=block;endFill=0;" parent="WIyWlLk6GJQsqaUBKTNV-1" source="a-mf5xK-BU-butNcgJY_-26" target="a-mf5xK-BU-butNcgJY_-52" edge="1">
          <mxGeometry relative="1" as="geometry">
            <mxPoint x="242.5" y="420" as="targetPoint" />
          </mxGeometry>
        </mxCell>
        <mxCell id="a-mf5xK-BU-butNcgJY_-26" value="拍手回数&lt;br&gt;チェック" style="shape=process;whiteSpace=wrap;html=1;backgroundOutline=1;strokeColor=default;strokeWidth=1;" parent="WIyWlLk6GJQsqaUBKTNV-1" vertex="1">
          <mxGeometry x="242.5" y="290" width="120" height="60" as="geometry" />
        </mxCell>
        <mxCell id="a-mf5xK-BU-butNcgJY_-31" style="edgeStyle=orthogonalEdgeStyle;rounded=0;orthogonalLoop=1;jettySize=auto;html=1;exitX=0.5;exitY=1;exitDx=0;exitDy=0;exitPerimeter=0;entryX=0.5;entryY=0;entryDx=0;entryDy=0;endArrow=block;endFill=0;" parent="WIyWlLk6GJQsqaUBKTNV-1" source="a-mf5xK-BU-butNcgJY_-30" target="a-mf5xK-BU-butNcgJY_-38" edge="1">
          <mxGeometry relative="1" as="geometry" />
        </mxCell>
        <mxCell id="a-mf5xK-BU-butNcgJY_-30" value="電源OFFまで繰り返し" style="strokeWidth=1;html=1;shape=mxgraph.flowchart.loop_limit;whiteSpace=wrap;" parent="WIyWlLk6GJQsqaUBKTNV-1" vertex="1">
          <mxGeometry x="67.5" y="120" width="205" height="40" as="geometry" />
        </mxCell>
        <mxCell id="a-mf5xK-BU-butNcgJY_-35" style="edgeStyle=orthogonalEdgeStyle;rounded=0;orthogonalLoop=1;jettySize=auto;html=1;exitX=0.5;exitY=0;exitDx=0;exitDy=0;exitPerimeter=0;endArrow=block;endFill=0;" parent="WIyWlLk6GJQsqaUBKTNV-1" source="a-mf5xK-BU-butNcgJY_-32" target="a-mf5xK-BU-butNcgJY_-34" edge="1">
          <mxGeometry relative="1" as="geometry" />
        </mxCell>
        <mxCell id="a-mf5xK-BU-butNcgJY_-32" value="" style="strokeWidth=1;html=1;shape=mxgraph.flowchart.loop_limit;whiteSpace=wrap;rotation=-180;" parent="WIyWlLk6GJQsqaUBKTNV-1" vertex="1">
          <mxGeometry x="70" y="650" width="200" height="30" as="geometry" />
        </mxCell>
        <mxCell id="a-mf5xK-BU-butNcgJY_-34" value="終了" style="ellipse;whiteSpace=wrap;html=1;strokeColor=default;strokeWidth=1;" parent="WIyWlLk6GJQsqaUBKTNV-1" vertex="1">
          <mxGeometry x="135" y="720" width="70" height="30" as="geometry" />
        </mxCell>
        <mxCell id="a-mf5xK-BU-butNcgJY_-36" value="&lt;b&gt;&lt;font style=&quot;font-size: 15px&quot;&gt;全体のフローチャート&lt;/font&gt;&lt;/b&gt;" style="text;html=1;strokeColor=none;fillColor=none;align=center;verticalAlign=middle;whiteSpace=wrap;rounded=0;" parent="WIyWlLk6GJQsqaUBKTNV-1" vertex="1">
          <mxGeometry x="90" y="10" width="160" height="30" as="geometry" />
        </mxCell>
        <mxCell id="a-mf5xK-BU-butNcgJY_-37" value="&lt;b&gt;&lt;font style=&quot;font-size: 15px&quot;&gt;拍手回数チェック&lt;/font&gt;&lt;/b&gt;" style="text;html=1;strokeColor=none;fillColor=none;align=center;verticalAlign=middle;whiteSpace=wrap;rounded=0;" parent="WIyWlLk6GJQsqaUBKTNV-1" vertex="1">
          <mxGeometry x="510" y="10" width="160" height="30" as="geometry" />
        </mxCell>
        <mxCell id="a-mf5xK-BU-butNcgJY_-40" value="&lt;font style=&quot;font-size: 12px&quot;&gt;Yes&lt;/font&gt;" style="edgeStyle=orthogonalEdgeStyle;rounded=0;orthogonalLoop=1;jettySize=auto;html=1;exitX=1;exitY=0.5;exitDx=0;exitDy=0;entryX=0.5;entryY=0;entryDx=0;entryDy=0;fontSize=15;endArrow=block;endFill=0;" parent="WIyWlLk6GJQsqaUBKTNV-1" source="a-mf5xK-BU-butNcgJY_-38" target="a-mf5xK-BU-butNcgJY_-26" edge="1">
          <mxGeometry x="-0.4093" relative="1" as="geometry">
            <mxPoint x="290" y="290" as="targetPoint" />
            <mxPoint as="offset" />
          </mxGeometry>
        </mxCell>
        <mxCell id="a-mf5xK-BU-butNcgJY_-50" style="edgeStyle=orthogonalEdgeStyle;rounded=0;orthogonalLoop=1;jettySize=auto;html=1;exitX=0.5;exitY=1;exitDx=0;exitDy=0;fontSize=12;endArrow=block;endFill=0;entryX=0.5;entryY=0;entryDx=0;entryDy=0;" parent="WIyWlLk6GJQsqaUBKTNV-1" source="a-mf5xK-BU-butNcgJY_-38" target="a-mf5xK-BU-butNcgJY_-53" edge="1">
          <mxGeometry relative="1" as="geometry">
            <mxPoint x="157.5" y="470" as="targetPoint" />
          </mxGeometry>
        </mxCell>
        <mxCell id="a-mf5xK-BU-butNcgJY_-51" value="No" style="edgeLabel;html=1;align=center;verticalAlign=middle;resizable=0;points=[];fontSize=12;" parent="a-mf5xK-BU-butNcgJY_-50" vertex="1" connectable="0">
          <mxGeometry x="-0.65" relative="1" as="geometry">
            <mxPoint as="offset" />
          </mxGeometry>
        </mxCell>
        <mxCell id="a-mf5xK-BU-butNcgJY_-38" value="拍手された？" style="rhombus;whiteSpace=wrap;html=1;shadow=0;fontFamily=Helvetica;fontSize=12;align=center;strokeWidth=1;spacing=6;spacingTop=-4;" parent="WIyWlLk6GJQsqaUBKTNV-1" vertex="1">
          <mxGeometry x="108.75" y="190" width="122.5" height="80" as="geometry" />
        </mxCell>
        <mxCell id="a-mf5xK-BU-butNcgJY_-54" style="edgeStyle=orthogonalEdgeStyle;rounded=0;orthogonalLoop=1;jettySize=auto;html=1;exitX=0.5;exitY=1;exitDx=0;exitDy=0;entryX=0.5;entryY=0;entryDx=0;entryDy=0;fontSize=12;endArrow=block;endFill=0;" parent="WIyWlLk6GJQsqaUBKTNV-1" source="a-mf5xK-BU-butNcgJY_-52" target="a-mf5xK-BU-butNcgJY_-53" edge="1">
          <mxGeometry relative="1" as="geometry" />
        </mxCell>
        <mxCell id="a-mf5xK-BU-butNcgJY_-52" value="&lt;span&gt;各デバイスの&lt;/span&gt;&lt;br&gt;&lt;span&gt;状態切り替え&lt;/span&gt;" style="rounded=1;whiteSpace=wrap;html=1;fontSize=12;strokeColor=default;strokeWidth=1;" parent="WIyWlLk6GJQsqaUBKTNV-1" vertex="1">
          <mxGeometry x="242.5" y="380" width="120" height="50" as="geometry" />
        </mxCell>
        <mxCell id="a-mf5xK-BU-butNcgJY_-56" style="edgeStyle=orthogonalEdgeStyle;rounded=0;orthogonalLoop=1;jettySize=auto;html=1;exitX=1;exitY=0.5;exitDx=0;exitDy=0;entryX=0.5;entryY=0;entryDx=0;entryDy=0;fontSize=12;endArrow=block;endFill=0;" parent="WIyWlLk6GJQsqaUBKTNV-1" source="a-mf5xK-BU-butNcgJY_-53" target="a-mf5xK-BU-butNcgJY_-55" edge="1">
          <mxGeometry relative="1" as="geometry" />
        </mxCell>
        <mxCell id="a-mf5xK-BU-butNcgJY_-57" value="Yes" style="edgeLabel;html=1;align=center;verticalAlign=middle;resizable=0;points=[];fontSize=12;" parent="a-mf5xK-BU-butNcgJY_-56" vertex="1" connectable="0">
          <mxGeometry x="-0.2343" y="-2" relative="1" as="geometry">
            <mxPoint x="1" as="offset" />
          </mxGeometry>
        </mxCell>
        <mxCell id="a-mf5xK-BU-butNcgJY_-58" value="No" style="edgeStyle=orthogonalEdgeStyle;rounded=0;orthogonalLoop=1;jettySize=auto;html=1;exitX=0.5;exitY=1;exitDx=0;exitDy=0;entryX=0.5;entryY=1;entryDx=0;entryDy=0;entryPerimeter=0;fontSize=12;endArrow=block;endFill=0;" parent="WIyWlLk6GJQsqaUBKTNV-1" source="a-mf5xK-BU-butNcgJY_-53" target="a-mf5xK-BU-butNcgJY_-32" edge="1">
          <mxGeometry relative="1" as="geometry" />
        </mxCell>
        <mxCell id="a-mf5xK-BU-butNcgJY_-53" value="お湯の量 ≧ HIGH ？" style="rhombus;whiteSpace=wrap;html=1;shadow=0;fontFamily=Helvetica;fontSize=12;align=center;strokeWidth=1;spacing=6;spacingTop=-4;" parent="WIyWlLk6GJQsqaUBKTNV-1" vertex="1">
          <mxGeometry x="85" y="480" width="170" height="80" as="geometry" />
        </mxCell>
        <mxCell id="a-mf5xK-BU-butNcgJY_-59" style="edgeStyle=orthogonalEdgeStyle;rounded=0;orthogonalLoop=1;jettySize=auto;html=1;exitX=0.5;exitY=1;exitDx=0;exitDy=0;entryX=0.463;entryY=0.967;entryDx=0;entryDy=0;entryPerimeter=0;fontSize=12;endArrow=block;endFill=0;" parent="WIyWlLk6GJQsqaUBKTNV-1" source="a-mf5xK-BU-butNcgJY_-55" target="a-mf5xK-BU-butNcgJY_-32" edge="1">
          <mxGeometry relative="1" as="geometry" />
        </mxCell>
        <mxCell id="a-mf5xK-BU-butNcgJY_-55" value="お湯を止める" style="rounded=1;whiteSpace=wrap;html=1;fontSize=12;glass=0;strokeWidth=1;shadow=0;" parent="WIyWlLk6GJQsqaUBKTNV-1" vertex="1">
          <mxGeometry x="242.5" y="560" width="120" height="40" as="geometry" />
        </mxCell>
        <mxCell id="a-mf5xK-BU-butNcgJY_-61" value="Yes" style="edgeStyle=orthogonalEdgeStyle;rounded=0;orthogonalLoop=1;jettySize=auto;html=1;exitX=0.5;exitY=1;exitDx=0;exitDy=0;entryX=0.5;entryY=0;entryDx=0;entryDy=0;fontSize=12;endArrow=block;endFill=0;" parent="WIyWlLk6GJQsqaUBKTNV-1" source="a-mf5xK-BU-butNcgJY_-60" target="a-mf5xK-BU-butNcgJY_-15" edge="1">
          <mxGeometry relative="1" as="geometry" />
        </mxCell>
        <mxCell id="a-mf5xK-BU-butNcgJY_-63" style="edgeStyle=orthogonalEdgeStyle;rounded=0;orthogonalLoop=1;jettySize=auto;html=1;exitX=1;exitY=0.5;exitDx=0;exitDy=0;fontSize=12;endArrow=block;endFill=0;endSize=8;" parent="WIyWlLk6GJQsqaUBKTNV-1" source="a-mf5xK-BU-butNcgJY_-60" edge="1">
          <mxGeometry relative="1" as="geometry">
            <mxPoint x="590" y="180" as="targetPoint" />
            <Array as="points">
              <mxPoint x="740" y="250" />
              <mxPoint x="740" y="180" />
            </Array>
          </mxGeometry>
        </mxCell>
        <mxCell id="a-mf5xK-BU-butNcgJY_-64" value="No" style="edgeLabel;html=1;align=center;verticalAlign=middle;resizable=0;points=[];fontSize=12;" parent="a-mf5xK-BU-butNcgJY_-63" vertex="1" connectable="0">
          <mxGeometry x="-0.5" relative="1" as="geometry">
            <mxPoint x="-35" as="offset" />
          </mxGeometry>
        </mxCell>
        <mxCell id="a-mf5xK-BU-butNcgJY_-60" value="音センサ&lt;br&gt;超音波センサ&lt;br&gt;反応あり？" style="rhombus;whiteSpace=wrap;html=1;shadow=0;fontFamily=Helvetica;fontSize=12;align=center;strokeWidth=1;spacing=6;spacingTop=-4;" parent="WIyWlLk6GJQsqaUBKTNV-1" vertex="1">
          <mxGeometry x="520" y="210" width="140" height="80" as="geometry" />
        </mxCell>
        <mxCell id="-Uq5ks_KmKbqLNOeUf3G-8" value="&lt;h1&gt;&lt;font style=&quot;font-size: 15px&quot;&gt;各デバイスの状態切り替え&lt;/font&gt;&lt;/h1&gt;&lt;p&gt;拍手回数ｎ&lt;/p&gt;&lt;p&gt;&lt;/p&gt;&lt;ol&gt;&lt;li&gt;浴室の電気をつける&lt;/li&gt;&lt;li&gt;お湯を出す・止める&lt;/li&gt;&lt;li&gt;テレビON・OFF&lt;/li&gt;&lt;li&gt;音楽ON・OFF&lt;/li&gt;&lt;li&gt;すべて初期化&lt;/li&gt;&lt;/ol&gt;&lt;div&gt;お湯の量がHIGHの時は、命令があってもお湯を出さない。&lt;/div&gt;&lt;div&gt;音楽は命令があるまで止まらない。&lt;/div&gt;&lt;p&gt;&lt;/p&gt;" style="text;html=1;spacing=5;spacingTop=-20;whiteSpace=wrap;overflow=hidden;rounded=0;labelBackgroundColor=none;fontSize=12;strokeColor=default;labelBorderColor=none;" parent="WIyWlLk6GJQsqaUBKTNV-1" vertex="1">
          <mxGeometry x="40" y="910" width="393.75" height="210" as="geometry" />
        </mxCell>
        <mxCell id="FZ6VrvXPmKXO-afzFe9K-4" style="edgeStyle=orthogonalEdgeStyle;rounded=0;orthogonalLoop=1;jettySize=auto;html=1;exitX=1;exitY=0.5;exitDx=0;exitDy=0;entryX=0;entryY=0.25;entryDx=0;entryDy=0;" parent="WIyWlLk6GJQsqaUBKTNV-1" source="FZ6VrvXPmKXO-afzFe9K-0" target="FZ6VrvXPmKXO-afzFe9K-3" edge="1">
          <mxGeometry relative="1" as="geometry" />
        </mxCell>
        <mxCell id="FZ6VrvXPmKXO-afzFe9K-0" value="" style="ellipse;fillColor=#000000;strokeColor=none;" parent="WIyWlLk6GJQsqaUBKTNV-1" vertex="1">
          <mxGeometry x="450" y="910" width="20" height="20" as="geometry" />
        </mxCell>
        <mxCell id="FZ6VrvXPmKXO-afzFe9K-1" value="" style="ellipse;html=1;shape=endState;fillColor=#000000;strokeColor=#000000;" parent="WIyWlLk6GJQsqaUBKTNV-1" vertex="1">
          <mxGeometry x="450" y="930" width="20" height="20" as="geometry" />
        </mxCell>
        <mxCell id="FZ6VrvXPmKXO-afzFe9K-6" style="edgeStyle=orthogonalEdgeStyle;rounded=0;orthogonalLoop=1;jettySize=auto;html=1;exitX=0;exitY=0.75;exitDx=0;exitDy=0;entryX=1;entryY=0.5;entryDx=0;entryDy=0;" parent="WIyWlLk6GJQsqaUBKTNV-1" source="FZ6VrvXPmKXO-afzFe9K-3" target="FZ6VrvXPmKXO-afzFe9K-1" edge="1">
          <mxGeometry relative="1" as="geometry" />
        </mxCell>
        <mxCell id="FZ6VrvXPmKXO-afzFe9K-3" value="CLOSE" style="html=1;align=center;verticalAlign=top;rounded=1;absoluteArcSize=1;arcSize=10;dashed=0;strokeColor=default;" parent="WIyWlLk6GJQsqaUBKTNV-1" vertex="1">
          <mxGeometry x="505" y="910" width="80" height="40" as="geometry" />
        </mxCell>
        <mxCell id="FZ6VrvXPmKXO-afzFe9K-7" value="OPEN" style="html=1;align=center;verticalAlign=top;rounded=1;absoluteArcSize=1;arcSize=10;dashed=0;strokeColor=default;" parent="WIyWlLk6GJQsqaUBKTNV-1" vertex="1">
          <mxGeometry x="715" y="910" width="80" height="40" as="geometry" />
        </mxCell>
        <mxCell id="FZ6VrvXPmKXO-afzFe9K-11" value="Call" style="endArrow=open;html=1;rounded=0;align=center;verticalAlign=bottom;endFill=0;labelBackgroundColor=none;exitX=1;exitY=0.25;exitDx=0;exitDy=0;entryX=0;entryY=0.25;entryDx=0;entryDy=0;" parent="WIyWlLk6GJQsqaUBKTNV-1" source="FZ6VrvXPmKXO-afzFe9K-3" target="FZ6VrvXPmKXO-afzFe9K-7" edge="1">
          <mxGeometry relative="1" as="geometry">
            <mxPoint x="535" y="1010" as="sourcePoint" />
            <mxPoint x="695" y="1010" as="targetPoint" />
          </mxGeometry>
        </mxCell>
        <mxCell id="FZ6VrvXPmKXO-afzFe9K-13" value="Call [W.level&amp;lt;HIGH]" style="endArrow=open;html=1;rounded=0;align=center;verticalAlign=bottom;endFill=0;labelBackgroundColor=none;exitX=0;exitY=0.75;exitDx=0;exitDy=0;entryX=1;entryY=0.75;entryDx=0;entryDy=0;" parent="WIyWlLk6GJQsqaUBKTNV-1" edge="1">
          <mxGeometry relative="1" as="geometry">
            <mxPoint x="715" y="940" as="sourcePoint" />
            <mxPoint x="585" y="940" as="targetPoint" />
          </mxGeometry>
        </mxCell>
        <mxCell id="FZ6VrvXPmKXO-afzFe9K-15" value="SLEEP" style="html=1;align=center;verticalAlign=top;rounded=1;absoluteArcSize=1;arcSize=10;dashed=0;strokeColor=default;" parent="WIyWlLk6GJQsqaUBKTNV-1" vertex="1">
          <mxGeometry x="615" y="990" width="80" height="40" as="geometry" />
        </mxCell>
        <mxCell id="FZ6VrvXPmKXO-afzFe9K-16" value="&lt;span style=&quot;background-color: rgb(255 , 255 , 255)&quot;&gt;Check [W.level≧HIGH]&lt;/span&gt;" style="endArrow=open;html=1;rounded=0;align=center;verticalAlign=bottom;endFill=0;labelBackgroundColor=none;exitX=0.5;exitY=1;exitDx=0;exitDy=0;entryX=1;entryY=0.5;entryDx=0;entryDy=0;" parent="WIyWlLk6GJQsqaUBKTNV-1" source="FZ6VrvXPmKXO-afzFe9K-7" target="FZ6VrvXPmKXO-afzFe9K-15" edge="1">
          <mxGeometry relative="1" as="geometry">
            <mxPoint x="725" y="950" as="sourcePoint" />
            <mxPoint x="595" y="950" as="targetPoint" />
          </mxGeometry>
        </mxCell>
        <mxCell id="FZ6VrvXPmKXO-afzFe9K-17" value="&lt;span style=&quot;background-color: rgb(255 , 255 , 255)&quot;&gt;initialize&lt;/span&gt;" style="endArrow=open;html=1;rounded=0;align=center;verticalAlign=bottom;endFill=0;labelBackgroundColor=none;exitX=0;exitY=0.5;exitDx=0;exitDy=0;entryX=0.5;entryY=1;entryDx=0;entryDy=0;" parent="WIyWlLk6GJQsqaUBKTNV-1" source="FZ6VrvXPmKXO-afzFe9K-15" target="FZ6VrvXPmKXO-afzFe9K-3" edge="1">
          <mxGeometry relative="1" as="geometry">
            <mxPoint x="595" y="930" as="sourcePoint" />
            <mxPoint x="725" y="930" as="targetPoint" />
          </mxGeometry>
        </mxCell>
        <mxCell id="FZ6VrvXPmKXO-afzFe9K-21" value="Call" style="curved=1;endArrow=classic;html=1;rounded=0;labelBackgroundColor=#FFFFFF;exitX=0.5;exitY=1;exitDx=0;exitDy=0;entryX=0.25;entryY=1;entryDx=0;entryDy=0;" parent="WIyWlLk6GJQsqaUBKTNV-1" source="FZ6VrvXPmKXO-afzFe9K-15" target="FZ6VrvXPmKXO-afzFe9K-15" edge="1">
          <mxGeometry width="50" height="50" relative="1" as="geometry">
            <mxPoint x="365" y="830" as="sourcePoint" />
            <mxPoint x="415" y="780" as="targetPoint" />
            <Array as="points">
              <mxPoint x="665" y="1050" />
              <mxPoint x="655" y="1070" />
              <mxPoint x="615" y="1060" />
            </Array>
          </mxGeometry>
        </mxCell>
        <mxCell id="FZ6VrvXPmKXO-afzFe9K-22" value="&lt;span style=&quot;font-size: 15px&quot;&gt;&lt;b&gt;サーボモータ状態遷移図&lt;/b&gt;&lt;/span&gt;" style="text;html=1;strokeColor=none;fillColor=none;align=center;verticalAlign=middle;whiteSpace=wrap;rounded=0;" parent="WIyWlLk6GJQsqaUBKTNV-1" vertex="1">
          <mxGeometry x="560" y="860" width="190" height="30" as="geometry" />
        </mxCell>
      </root>
    </mxGraphModel>
  </diagram>
  <diagram id="xkdEnGDIqZ-4uYbFrwBx" name="Memo">
    <mxGraphModel dx="1422" dy="762" grid="1" gridSize="10" guides="1" tooltips="1" connect="1" arrows="1" fold="1" page="1" pageScale="1" pageWidth="1169" pageHeight="827" math="0" shadow="0">
      <root>
        <mxCell id="1MDK5DKHOnpBH_GhgxfY-0" />
        <mxCell id="1MDK5DKHOnpBH_GhgxfY-1" parent="1MDK5DKHOnpBH_GhgxfY-0" />
        <mxCell id="1MDK5DKHOnpBH_GhgxfY-2" value="&lt;h1&gt;必要な部品&lt;/h1&gt;&lt;p&gt;&lt;/p&gt;&lt;ul&gt;&lt;li&gt;LED１個（部屋の電気）&lt;/li&gt;&lt;li&gt;LED4個（拍手回数を数える）&lt;/li&gt;&lt;li&gt;電源ブザー（アラート用）&lt;/li&gt;&lt;li&gt;サーボモータ&lt;/li&gt;&lt;li&gt;水量センサ&lt;/li&gt;&lt;li&gt;音センサ&lt;/li&gt;&lt;li&gt;モーションセンサ&lt;/li&gt;&lt;li&gt;圧電ブザー（音楽用）&lt;/li&gt;&lt;li&gt;液晶（テレビ）&lt;/li&gt;&lt;li&gt;液晶（残り時間表示）&lt;/li&gt;&lt;li&gt;可変抵抗器&lt;/li&gt;&lt;li&gt;220Ω抵抗×５&lt;/li&gt;&lt;/ul&gt;LEDをシフトレジスタで管理しようか迷ったけど、回路が複雑になるからやめた&lt;br&gt;&lt;br&gt;&lt;p&gt;&lt;/p&gt;" style="text;html=1;strokeColor=none;fillColor=none;spacing=5;spacingTop=-20;whiteSpace=wrap;overflow=hidden;rounded=0;labelBackgroundColor=#D5E8D4;fontSize=12;" parent="1MDK5DKHOnpBH_GhgxfY-1" vertex="1">
          <mxGeometry x="30" y="40" width="240" height="280" as="geometry" />
        </mxCell>
        <mxCell id="s8hUDdjLKCMQ5P49x1RI-0" value="タスク" style="swimlane;fontStyle=0;childLayout=stackLayout;horizontal=1;startSize=30;horizontalStack=0;resizeParent=1;resizeParentMax=0;resizeLast=0;collapsible=1;marginBottom=0;labelBackgroundColor=none;labelBorderColor=none;fontSize=15;strokeColor=default;strokeWidth=1;" parent="1MDK5DKHOnpBH_GhgxfY-1" vertex="1">
          <mxGeometry x="620" y="30" width="520" height="330" as="geometry" />
        </mxCell>
        <mxCell id="s8hUDdjLKCMQ5P49x1RI-1" value="モーションセンサ＋音センサで拍手検知" style="text;strokeColor=none;fillColor=none;align=left;verticalAlign=middle;spacingLeft=4;spacingRight=4;overflow=hidden;points=[[0,0.5],[1,0.5]];portConstraint=eastwest;rotatable=0;labelBackgroundColor=none;labelBorderColor=none;fontSize=15;" parent="s8hUDdjLKCMQ5P49x1RI-0" vertex="1">
          <mxGeometry y="30" width="520" height="30" as="geometry" />
        </mxCell>
        <mxCell id="s8hUDdjLKCMQ5P49x1RI-3" value="拍手回数をLEDで表示（シフトレジスタを使う）" style="text;strokeColor=none;fillColor=none;align=left;verticalAlign=middle;spacingLeft=4;spacingRight=4;overflow=hidden;points=[[0,0.5],[1,0.5]];portConstraint=eastwest;rotatable=0;labelBackgroundColor=none;labelBorderColor=none;fontSize=15;" parent="s8hUDdjLKCMQ5P49x1RI-0" vertex="1">
          <mxGeometry y="60" width="520" height="30" as="geometry" />
        </mxCell>
        <mxCell id="s8hUDdjLKCMQ5P49x1RI-2" value="上記に液晶を接続し、残り時間表示" style="text;strokeColor=none;fillColor=none;align=left;verticalAlign=middle;spacingLeft=4;spacingRight=4;overflow=hidden;points=[[0,0.5],[1,0.5]];portConstraint=eastwest;rotatable=0;labelBackgroundColor=none;labelBorderColor=none;fontSize=15;" parent="s8hUDdjLKCMQ5P49x1RI-0" vertex="1">
          <mxGeometry y="90" width="520" height="30" as="geometry" />
        </mxCell>
        <mxCell id="2WjKdWlLwfC9uc2Zd5j5-1" value="水量センサ＋サーボモータ" style="text;strokeColor=none;fillColor=none;align=left;verticalAlign=middle;spacingLeft=4;spacingRight=4;overflow=hidden;points=[[0,0.5],[1,0.5]];portConstraint=eastwest;rotatable=0;labelBackgroundColor=none;labelBorderColor=none;fontSize=15;" parent="s8hUDdjLKCMQ5P49x1RI-0" vertex="1">
          <mxGeometry y="120" width="520" height="30" as="geometry" />
        </mxCell>
        <mxCell id="2WjKdWlLwfC9uc2Zd5j5-2" value="お湯自動で止める（サーボモータ動作）" style="text;strokeColor=none;fillColor=none;align=left;verticalAlign=middle;spacingLeft=4;spacingRight=4;overflow=hidden;points=[[0,0.5],[1,0.5]];portConstraint=eastwest;rotatable=0;labelBackgroundColor=none;labelBorderColor=none;fontSize=15;" parent="s8hUDdjLKCMQ5P49x1RI-0" vertex="1">
          <mxGeometry y="150" width="520" height="30" as="geometry" />
        </mxCell>
        <mxCell id="2WjKdWlLwfC9uc2Zd5j5-4" value="電気をつける" style="text;strokeColor=none;fillColor=none;align=left;verticalAlign=middle;spacingLeft=4;spacingRight=4;overflow=hidden;points=[[0,0.5],[1,0.5]];portConstraint=eastwest;rotatable=0;labelBackgroundColor=none;labelBorderColor=none;fontSize=15;" parent="s8hUDdjLKCMQ5P49x1RI-0" vertex="1">
          <mxGeometry y="180" width="520" height="30" as="geometry" />
        </mxCell>
        <mxCell id="dPcROoC1MiJzDbtAln1M-0" value="テレビ" style="text;strokeColor=none;fillColor=none;align=left;verticalAlign=middle;spacingLeft=4;spacingRight=4;overflow=hidden;points=[[0,0.5],[1,0.5]];portConstraint=eastwest;rotatable=0;labelBackgroundColor=none;labelBorderColor=none;fontSize=15;" parent="s8hUDdjLKCMQ5P49x1RI-0" vertex="1">
          <mxGeometry y="210" width="520" height="30" as="geometry" />
        </mxCell>
        <mxCell id="2WjKdWlLwfC9uc2Zd5j5-3" value="音楽" style="text;strokeColor=none;fillColor=none;align=left;verticalAlign=middle;spacingLeft=4;spacingRight=4;overflow=hidden;points=[[0,0.5],[1,0.5]];portConstraint=eastwest;rotatable=0;labelBackgroundColor=none;labelBorderColor=none;fontSize=15;" parent="s8hUDdjLKCMQ5P49x1RI-0" vertex="1">
          <mxGeometry y="240" width="520" height="30" as="geometry" />
        </mxCell>
        <mxCell id="2WjKdWlLwfC9uc2Zd5j5-5" value="アラート機能" style="text;strokeColor=none;fillColor=none;align=left;verticalAlign=middle;spacingLeft=4;spacingRight=4;overflow=hidden;points=[[0,0.5],[1,0.5]];portConstraint=eastwest;rotatable=0;labelBackgroundColor=none;labelBorderColor=none;fontSize=15;" parent="s8hUDdjLKCMQ5P49x1RI-0" vertex="1">
          <mxGeometry y="270" width="520" height="30" as="geometry" />
        </mxCell>
        <mxCell id="2WjKdWlLwfC9uc2Zd5j5-7" value="LEDにタグ付ける、背景スタンド置く" style="text;strokeColor=none;fillColor=none;align=left;verticalAlign=middle;spacingLeft=4;spacingRight=4;overflow=hidden;points=[[0,0.5],[1,0.5]];portConstraint=eastwest;rotatable=0;labelBackgroundColor=none;labelBorderColor=none;fontSize=15;" parent="s8hUDdjLKCMQ5P49x1RI-0" vertex="1">
          <mxGeometry y="300" width="520" height="30" as="geometry" />
        </mxCell>
        <mxCell id="dPcROoC1MiJzDbtAln1M-3" value="回路" style="shape=table;startSize=30;container=1;collapsible=0;childLayout=tableLayout;fontStyle=1;align=center;pointerEvents=1;" parent="1MDK5DKHOnpBH_GhgxfY-1" vertex="1">
          <mxGeometry x="290" y="30" width="310" height="449" as="geometry" />
        </mxCell>
        <mxCell id="dPcROoC1MiJzDbtAln1M-4" value="" style="shape=partialRectangle;html=1;whiteSpace=wrap;collapsible=0;dropTarget=0;pointerEvents=0;fillColor=none;top=0;left=0;bottom=0;right=0;points=[[0,0.5],[1,0.5]];portConstraint=eastwest;" parent="dPcROoC1MiJzDbtAln1M-3" vertex="1">
          <mxGeometry y="30" width="310" height="29" as="geometry" />
        </mxCell>
        <mxCell id="dPcROoC1MiJzDbtAln1M-5" value="デバイス" style="shape=partialRectangle;html=1;whiteSpace=wrap;connectable=0;fillColor=none;top=0;left=0;bottom=0;right=0;overflow=hidden;pointerEvents=1;" parent="dPcROoC1MiJzDbtAln1M-4" vertex="1">
          <mxGeometry width="102" height="29" as="geometry">
            <mxRectangle width="102" height="29" as="alternateBounds" />
          </mxGeometry>
        </mxCell>
        <mxCell id="dPcROoC1MiJzDbtAln1M-6" value="役割" style="shape=partialRectangle;html=1;whiteSpace=wrap;connectable=0;fillColor=none;top=0;left=0;bottom=0;right=0;overflow=hidden;pointerEvents=1;" parent="dPcROoC1MiJzDbtAln1M-4" vertex="1">
          <mxGeometry x="102" width="106" height="29" as="geometry">
            <mxRectangle width="106" height="29" as="alternateBounds" />
          </mxGeometry>
        </mxCell>
        <mxCell id="dPcROoC1MiJzDbtAln1M-7" value="pin" style="shape=partialRectangle;html=1;whiteSpace=wrap;connectable=0;fillColor=none;top=0;left=0;bottom=0;right=0;overflow=hidden;pointerEvents=1;" parent="dPcROoC1MiJzDbtAln1M-4" vertex="1">
          <mxGeometry x="208" width="102" height="29" as="geometry">
            <mxRectangle width="102" height="29" as="alternateBounds" />
          </mxGeometry>
        </mxCell>
        <mxCell id="dPcROoC1MiJzDbtAln1M-8" value="" style="shape=partialRectangle;html=1;whiteSpace=wrap;collapsible=0;dropTarget=0;pointerEvents=0;fillColor=none;top=0;left=0;bottom=0;right=0;points=[[0,0.5],[1,0.5]];portConstraint=eastwest;" parent="dPcROoC1MiJzDbtAln1M-3" vertex="1">
          <mxGeometry y="59" width="310" height="39" as="geometry" />
        </mxCell>
        <mxCell id="dPcROoC1MiJzDbtAln1M-9" value="LED×5" style="shape=partialRectangle;html=1;whiteSpace=wrap;connectable=0;fillColor=none;top=0;left=0;bottom=0;right=0;overflow=hidden;pointerEvents=1;" parent="dPcROoC1MiJzDbtAln1M-8" vertex="1">
          <mxGeometry width="102" height="39" as="geometry">
            <mxRectangle width="102" height="39" as="alternateBounds" />
          </mxGeometry>
        </mxCell>
        <mxCell id="dPcROoC1MiJzDbtAln1M-10" value="デジタル出力" style="shape=partialRectangle;html=1;whiteSpace=wrap;connectable=0;fillColor=none;top=0;left=0;bottom=0;right=0;overflow=hidden;pointerEvents=1;" parent="dPcROoC1MiJzDbtAln1M-8" vertex="1">
          <mxGeometry x="102" width="106" height="39" as="geometry">
            <mxRectangle width="106" height="39" as="alternateBounds" />
          </mxGeometry>
        </mxCell>
        <mxCell id="dPcROoC1MiJzDbtAln1M-11" value="D22～D27" style="shape=partialRectangle;html=1;whiteSpace=wrap;connectable=0;fillColor=none;top=0;left=0;bottom=0;right=0;overflow=hidden;pointerEvents=1;" parent="dPcROoC1MiJzDbtAln1M-8" vertex="1">
          <mxGeometry x="208" width="102" height="39" as="geometry">
            <mxRectangle width="102" height="39" as="alternateBounds" />
          </mxGeometry>
        </mxCell>
        <mxCell id="dPcROoC1MiJzDbtAln1M-12" value="" style="shape=partialRectangle;html=1;whiteSpace=wrap;collapsible=0;dropTarget=0;pointerEvents=0;fillColor=none;top=0;left=0;bottom=0;right=0;points=[[0,0.5],[1,0.5]];portConstraint=eastwest;" parent="dPcROoC1MiJzDbtAln1M-3" vertex="1">
          <mxGeometry y="98" width="310" height="39" as="geometry" />
        </mxCell>
        <mxCell id="dPcROoC1MiJzDbtAln1M-13" value="電源ブザー" style="shape=partialRectangle;html=1;whiteSpace=wrap;connectable=0;fillColor=none;top=0;left=0;bottom=0;right=0;overflow=hidden;pointerEvents=1;" parent="dPcROoC1MiJzDbtAln1M-12" vertex="1">
          <mxGeometry width="102" height="39" as="geometry">
            <mxRectangle width="102" height="39" as="alternateBounds" />
          </mxGeometry>
        </mxCell>
        <mxCell id="dPcROoC1MiJzDbtAln1M-14" value="&lt;span style=&quot;color: rgb(0 , 0 , 0) ; font-family: &amp;#34;helvetica&amp;#34; ; font-size: 12px ; font-style: normal ; font-weight: 400 ; letter-spacing: normal ; text-align: center ; text-indent: 0px ; text-transform: none ; word-spacing: 0px ; background-color: rgb(248 , 249 , 250) ; display: inline ; float: none&quot;&gt;デジタル出力&lt;/span&gt;" style="shape=partialRectangle;html=1;whiteSpace=wrap;connectable=0;fillColor=none;top=0;left=0;bottom=0;right=0;overflow=hidden;pointerEvents=1;" parent="dPcROoC1MiJzDbtAln1M-12" vertex="1">
          <mxGeometry x="102" width="106" height="39" as="geometry">
            <mxRectangle width="106" height="39" as="alternateBounds" />
          </mxGeometry>
        </mxCell>
        <mxCell id="dPcROoC1MiJzDbtAln1M-15" value="D29" style="shape=partialRectangle;html=1;whiteSpace=wrap;connectable=0;fillColor=none;top=0;left=0;bottom=0;right=0;overflow=hidden;pointerEvents=1;" parent="dPcROoC1MiJzDbtAln1M-12" vertex="1">
          <mxGeometry x="208" width="102" height="39" as="geometry">
            <mxRectangle width="102" height="39" as="alternateBounds" />
          </mxGeometry>
        </mxCell>
        <mxCell id="dPcROoC1MiJzDbtAln1M-16" style="shape=partialRectangle;html=1;whiteSpace=wrap;collapsible=0;dropTarget=0;pointerEvents=0;fillColor=none;top=0;left=0;bottom=0;right=0;points=[[0,0.5],[1,0.5]];portConstraint=eastwest;" parent="dPcROoC1MiJzDbtAln1M-3" vertex="1">
          <mxGeometry y="137" width="310" height="39" as="geometry" />
        </mxCell>
        <mxCell id="dPcROoC1MiJzDbtAln1M-17" value="サーボモータ" style="shape=partialRectangle;html=1;whiteSpace=wrap;connectable=0;fillColor=none;top=0;left=0;bottom=0;right=0;overflow=hidden;pointerEvents=1;" parent="dPcROoC1MiJzDbtAln1M-16" vertex="1">
          <mxGeometry width="102" height="39" as="geometry">
            <mxRectangle width="102" height="39" as="alternateBounds" />
          </mxGeometry>
        </mxCell>
        <mxCell id="dPcROoC1MiJzDbtAln1M-18" value="PWM" style="shape=partialRectangle;html=1;whiteSpace=wrap;connectable=0;fillColor=none;top=0;left=0;bottom=0;right=0;overflow=hidden;pointerEvents=1;" parent="dPcROoC1MiJzDbtAln1M-16" vertex="1">
          <mxGeometry x="102" width="106" height="39" as="geometry">
            <mxRectangle width="106" height="39" as="alternateBounds" />
          </mxGeometry>
        </mxCell>
        <mxCell id="dPcROoC1MiJzDbtAln1M-19" value="D2" style="shape=partialRectangle;html=1;whiteSpace=wrap;connectable=0;fillColor=none;top=0;left=0;bottom=0;right=0;overflow=hidden;pointerEvents=1;" parent="dPcROoC1MiJzDbtAln1M-16" vertex="1">
          <mxGeometry x="208" width="102" height="39" as="geometry">
            <mxRectangle width="102" height="39" as="alternateBounds" />
          </mxGeometry>
        </mxCell>
        <mxCell id="dPcROoC1MiJzDbtAln1M-40" style="shape=partialRectangle;html=1;whiteSpace=wrap;collapsible=0;dropTarget=0;pointerEvents=0;fillColor=none;top=0;left=0;bottom=0;right=0;points=[[0,0.5],[1,0.5]];portConstraint=eastwest;" parent="dPcROoC1MiJzDbtAln1M-3" vertex="1">
          <mxGeometry y="176" width="310" height="39" as="geometry" />
        </mxCell>
        <mxCell id="dPcROoC1MiJzDbtAln1M-41" style="shape=partialRectangle;html=1;whiteSpace=wrap;connectable=0;fillColor=none;top=0;left=0;bottom=0;right=0;overflow=hidden;pointerEvents=1;" parent="dPcROoC1MiJzDbtAln1M-40" vertex="1">
          <mxGeometry width="102" height="39" as="geometry">
            <mxRectangle width="102" height="39" as="alternateBounds" />
          </mxGeometry>
        </mxCell>
        <mxCell id="dPcROoC1MiJzDbtAln1M-42" value="シグナル取得" style="shape=partialRectangle;html=1;whiteSpace=wrap;connectable=0;fillColor=none;top=0;left=0;bottom=0;right=0;overflow=hidden;pointerEvents=1;" parent="dPcROoC1MiJzDbtAln1M-40" vertex="1">
          <mxGeometry x="102" width="106" height="39" as="geometry">
            <mxRectangle width="106" height="39" as="alternateBounds" />
          </mxGeometry>
        </mxCell>
        <mxCell id="dPcROoC1MiJzDbtAln1M-43" value="D30" style="shape=partialRectangle;html=1;whiteSpace=wrap;connectable=0;fillColor=none;top=0;left=0;bottom=0;right=0;overflow=hidden;pointerEvents=1;" parent="dPcROoC1MiJzDbtAln1M-40" vertex="1">
          <mxGeometry x="208" width="102" height="39" as="geometry">
            <mxRectangle width="102" height="39" as="alternateBounds" />
          </mxGeometry>
        </mxCell>
        <mxCell id="dPcROoC1MiJzDbtAln1M-20" style="shape=partialRectangle;html=1;whiteSpace=wrap;collapsible=0;dropTarget=0;pointerEvents=0;fillColor=none;top=0;left=0;bottom=0;right=0;points=[[0,0.5],[1,0.5]];portConstraint=eastwest;" parent="dPcROoC1MiJzDbtAln1M-3" vertex="1">
          <mxGeometry y="215" width="310" height="39" as="geometry" />
        </mxCell>
        <mxCell id="dPcROoC1MiJzDbtAln1M-21" value="水量センサ" style="shape=partialRectangle;html=1;whiteSpace=wrap;connectable=0;fillColor=none;top=0;left=0;bottom=0;right=0;overflow=hidden;pointerEvents=1;" parent="dPcROoC1MiJzDbtAln1M-20" vertex="1">
          <mxGeometry width="102" height="39" as="geometry">
            <mxRectangle width="102" height="39" as="alternateBounds" />
          </mxGeometry>
        </mxCell>
        <mxCell id="dPcROoC1MiJzDbtAln1M-22" value="シグナル取得" style="shape=partialRectangle;html=1;whiteSpace=wrap;connectable=0;fillColor=none;top=0;left=0;bottom=0;right=0;overflow=hidden;pointerEvents=1;" parent="dPcROoC1MiJzDbtAln1M-20" vertex="1">
          <mxGeometry x="102" width="106" height="39" as="geometry">
            <mxRectangle width="106" height="39" as="alternateBounds" />
          </mxGeometry>
        </mxCell>
        <mxCell id="dPcROoC1MiJzDbtAln1M-23" value="D31" style="shape=partialRectangle;html=1;whiteSpace=wrap;connectable=0;fillColor=none;top=0;left=0;bottom=0;right=0;overflow=hidden;pointerEvents=1;" parent="dPcROoC1MiJzDbtAln1M-20" vertex="1">
          <mxGeometry x="208" width="102" height="39" as="geometry">
            <mxRectangle width="102" height="39" as="alternateBounds" />
          </mxGeometry>
        </mxCell>
        <mxCell id="dPcROoC1MiJzDbtAln1M-24" style="shape=partialRectangle;html=1;whiteSpace=wrap;collapsible=0;dropTarget=0;pointerEvents=0;fillColor=none;top=0;left=0;bottom=0;right=0;points=[[0,0.5],[1,0.5]];portConstraint=eastwest;" parent="dPcROoC1MiJzDbtAln1M-3" vertex="1">
          <mxGeometry y="254" width="310" height="39" as="geometry" />
        </mxCell>
        <mxCell id="dPcROoC1MiJzDbtAln1M-25" value="音センサ&lt;br&gt;" style="shape=partialRectangle;html=1;whiteSpace=wrap;connectable=0;fillColor=none;top=0;left=0;bottom=0;right=0;overflow=hidden;pointerEvents=1;" parent="dPcROoC1MiJzDbtAln1M-24" vertex="1">
          <mxGeometry width="102" height="39" as="geometry">
            <mxRectangle width="102" height="39" as="alternateBounds" />
          </mxGeometry>
        </mxCell>
        <mxCell id="dPcROoC1MiJzDbtAln1M-26" value="シグナル取得" style="shape=partialRectangle;html=1;whiteSpace=wrap;connectable=0;fillColor=none;top=0;left=0;bottom=0;right=0;overflow=hidden;pointerEvents=1;" parent="dPcROoC1MiJzDbtAln1M-24" vertex="1">
          <mxGeometry x="102" width="106" height="39" as="geometry">
            <mxRectangle width="106" height="39" as="alternateBounds" />
          </mxGeometry>
        </mxCell>
        <mxCell id="dPcROoC1MiJzDbtAln1M-27" value="D32" style="shape=partialRectangle;html=1;whiteSpace=wrap;connectable=0;fillColor=none;top=0;left=0;bottom=0;right=0;overflow=hidden;pointerEvents=1;" parent="dPcROoC1MiJzDbtAln1M-24" vertex="1">
          <mxGeometry x="208" width="102" height="39" as="geometry">
            <mxRectangle width="102" height="39" as="alternateBounds" />
          </mxGeometry>
        </mxCell>
        <mxCell id="dPcROoC1MiJzDbtAln1M-28" style="shape=partialRectangle;html=1;whiteSpace=wrap;collapsible=0;dropTarget=0;pointerEvents=0;fillColor=none;top=0;left=0;bottom=0;right=0;points=[[0,0.5],[1,0.5]];portConstraint=eastwest;" parent="dPcROoC1MiJzDbtAln1M-3" vertex="1">
          <mxGeometry y="293" width="310" height="39" as="geometry" />
        </mxCell>
        <mxCell id="dPcROoC1MiJzDbtAln1M-29" value="モーション" style="shape=partialRectangle;html=1;whiteSpace=wrap;connectable=0;fillColor=none;top=0;left=0;bottom=0;right=0;overflow=hidden;pointerEvents=1;" parent="dPcROoC1MiJzDbtAln1M-28" vertex="1">
          <mxGeometry width="102" height="39" as="geometry">
            <mxRectangle width="102" height="39" as="alternateBounds" />
          </mxGeometry>
        </mxCell>
        <mxCell id="dPcROoC1MiJzDbtAln1M-30" value="シグナル取得" style="shape=partialRectangle;html=1;whiteSpace=wrap;connectable=0;fillColor=none;top=0;left=0;bottom=0;right=0;overflow=hidden;pointerEvents=1;" parent="dPcROoC1MiJzDbtAln1M-28" vertex="1">
          <mxGeometry x="102" width="106" height="39" as="geometry">
            <mxRectangle width="106" height="39" as="alternateBounds" />
          </mxGeometry>
        </mxCell>
        <mxCell id="dPcROoC1MiJzDbtAln1M-31" value="D33" style="shape=partialRectangle;html=1;whiteSpace=wrap;connectable=0;fillColor=none;top=0;left=0;bottom=0;right=0;overflow=hidden;pointerEvents=1;" parent="dPcROoC1MiJzDbtAln1M-28" vertex="1">
          <mxGeometry x="208" width="102" height="39" as="geometry">
            <mxRectangle width="102" height="39" as="alternateBounds" />
          </mxGeometry>
        </mxCell>
        <mxCell id="dPcROoC1MiJzDbtAln1M-32" style="shape=partialRectangle;html=1;whiteSpace=wrap;collapsible=0;dropTarget=0;pointerEvents=0;fillColor=none;top=0;left=0;bottom=0;right=0;points=[[0,0.5],[1,0.5]];portConstraint=eastwest;" parent="dPcROoC1MiJzDbtAln1M-3" vertex="1">
          <mxGeometry y="332" width="310" height="39" as="geometry" />
        </mxCell>
        <mxCell id="dPcROoC1MiJzDbtAln1M-33" value="&lt;span&gt;圧電ブザー&lt;/span&gt;" style="shape=partialRectangle;html=1;whiteSpace=wrap;connectable=0;fillColor=none;top=0;left=0;bottom=0;right=0;overflow=hidden;pointerEvents=1;" parent="dPcROoC1MiJzDbtAln1M-32" vertex="1">
          <mxGeometry width="102" height="39" as="geometry">
            <mxRectangle width="102" height="39" as="alternateBounds" />
          </mxGeometry>
        </mxCell>
        <mxCell id="dPcROoC1MiJzDbtAln1M-34" value="&lt;span style=&quot;font-family: &amp;#34;helvetica&amp;#34;&quot;&gt;デジタル出力&lt;/span&gt;" style="shape=partialRectangle;html=1;whiteSpace=wrap;connectable=0;fillColor=none;top=0;left=0;bottom=0;right=0;overflow=hidden;pointerEvents=1;" parent="dPcROoC1MiJzDbtAln1M-32" vertex="1">
          <mxGeometry x="102" width="106" height="39" as="geometry">
            <mxRectangle width="106" height="39" as="alternateBounds" />
          </mxGeometry>
        </mxCell>
        <mxCell id="dPcROoC1MiJzDbtAln1M-35" value="D34" style="shape=partialRectangle;html=1;whiteSpace=wrap;connectable=0;fillColor=none;top=0;left=0;bottom=0;right=0;overflow=hidden;pointerEvents=1;" parent="dPcROoC1MiJzDbtAln1M-32" vertex="1">
          <mxGeometry x="208" width="102" height="39" as="geometry">
            <mxRectangle width="102" height="39" as="alternateBounds" />
          </mxGeometry>
        </mxCell>
        <mxCell id="dPcROoC1MiJzDbtAln1M-36" style="shape=partialRectangle;html=1;whiteSpace=wrap;collapsible=0;dropTarget=0;pointerEvents=0;fillColor=none;top=0;left=0;bottom=0;right=0;points=[[0,0.5],[1,0.5]];portConstraint=eastwest;" parent="dPcROoC1MiJzDbtAln1M-3" vertex="1">
          <mxGeometry y="371" width="310" height="39" as="geometry" />
        </mxCell>
        <mxCell id="dPcROoC1MiJzDbtAln1M-37" value="LCDディスプレイ" style="shape=partialRectangle;html=1;whiteSpace=wrap;connectable=0;fillColor=none;top=0;left=0;bottom=0;right=0;overflow=hidden;pointerEvents=1;" parent="dPcROoC1MiJzDbtAln1M-36" vertex="1">
          <mxGeometry width="102" height="39" as="geometry">
            <mxRectangle width="102" height="39" as="alternateBounds" />
          </mxGeometry>
        </mxCell>
        <mxCell id="dPcROoC1MiJzDbtAln1M-38" style="shape=partialRectangle;html=1;whiteSpace=wrap;connectable=0;fillColor=none;top=0;left=0;bottom=0;right=0;overflow=hidden;pointerEvents=1;" parent="dPcROoC1MiJzDbtAln1M-36" vertex="1">
          <mxGeometry x="102" width="106" height="39" as="geometry">
            <mxRectangle width="106" height="39" as="alternateBounds" />
          </mxGeometry>
        </mxCell>
        <mxCell id="dPcROoC1MiJzDbtAln1M-39" style="shape=partialRectangle;html=1;whiteSpace=wrap;connectable=0;fillColor=none;top=0;left=0;bottom=0;right=0;overflow=hidden;pointerEvents=1;" parent="dPcROoC1MiJzDbtAln1M-36" vertex="1">
          <mxGeometry x="208" width="102" height="39" as="geometry">
            <mxRectangle width="102" height="39" as="alternateBounds" />
          </mxGeometry>
        </mxCell>
        <mxCell id="dPcROoC1MiJzDbtAln1M-44" style="shape=partialRectangle;html=1;whiteSpace=wrap;collapsible=0;dropTarget=0;pointerEvents=0;fillColor=none;top=0;left=0;bottom=0;right=0;points=[[0,0.5],[1,0.5]];portConstraint=eastwest;" parent="dPcROoC1MiJzDbtAln1M-3" vertex="1">
          <mxGeometry y="410" width="310" height="39" as="geometry" />
        </mxCell>
        <mxCell id="dPcROoC1MiJzDbtAln1M-45" value="MAX7129" style="shape=partialRectangle;html=1;whiteSpace=wrap;connectable=0;fillColor=none;top=0;left=0;bottom=0;right=0;overflow=hidden;pointerEvents=1;" parent="dPcROoC1MiJzDbtAln1M-44" vertex="1">
          <mxGeometry width="102" height="39" as="geometry">
            <mxRectangle width="102" height="39" as="alternateBounds" />
          </mxGeometry>
        </mxCell>
        <mxCell id="dPcROoC1MiJzDbtAln1M-46" style="shape=partialRectangle;html=1;whiteSpace=wrap;connectable=0;fillColor=none;top=0;left=0;bottom=0;right=0;overflow=hidden;pointerEvents=1;" parent="dPcROoC1MiJzDbtAln1M-44" vertex="1">
          <mxGeometry x="102" width="106" height="39" as="geometry">
            <mxRectangle width="106" height="39" as="alternateBounds" />
          </mxGeometry>
        </mxCell>
        <mxCell id="dPcROoC1MiJzDbtAln1M-47" style="shape=partialRectangle;html=1;whiteSpace=wrap;connectable=0;fillColor=none;top=0;left=0;bottom=0;right=0;overflow=hidden;pointerEvents=1;" parent="dPcROoC1MiJzDbtAln1M-44" vertex="1">
          <mxGeometry x="208" width="102" height="39" as="geometry">
            <mxRectangle width="102" height="39" as="alternateBounds" />
          </mxGeometry>
        </mxCell>
        <mxCell id="Zq2uMXUpseCOmcZ0T4h7-0" value="&lt;h1&gt;&lt;font color=&quot;#000000&quot; style=&quot;font-size: 15px&quot;&gt;テストケース（入力と出力のセット）&lt;/font&gt;&lt;/h1&gt;&lt;p&gt;&lt;font color=&quot;#000000&quot;&gt;メイン&lt;/font&gt;&lt;/p&gt;&lt;ul&gt;&lt;li&gt;&lt;font color=&quot;#000000&quot;&gt;拍手2回、お湯の量０ 、モータCLOSE→ モータOPEN&lt;/font&gt;&lt;/li&gt;&lt;li&gt;&lt;font color=&quot;#000000&quot;&gt;拍手2回、お湯の量０、モータOPEN&amp;nbsp;→ モータCLOSE&lt;/font&gt;&lt;/li&gt;&lt;li&gt;&lt;font color=&quot;#000000&quot;&gt;拍手なし、お湯の量HIGH、モータOPEN&amp;nbsp;→ モータCLOSE&lt;/font&gt;&lt;/li&gt;&lt;li&gt;&lt;font color=&quot;#000000&quot;&gt;拍手2回、お湯の量HIGH、モータCLOSE→ モータCLOSE(OPENにならない)&lt;/font&gt;&lt;/li&gt;&lt;/ul&gt;&lt;div&gt;&lt;font color=&quot;#000000&quot;&gt;拍手チェック&lt;/font&gt;&lt;/div&gt;&lt;div&gt;&lt;ul&gt;&lt;li&gt;&lt;font color=&quot;#000000&quot;&gt;拍手0回 → LED点灯なし&lt;/font&gt;&lt;/li&gt;&lt;li&gt;&lt;font color=&quot;#000000&quot;&gt;拍手1～5回 → 1～5番目のLED点灯&lt;/font&gt;&lt;/li&gt;&lt;li&gt;&lt;font color=&quot;#000000&quot;&gt;拍手6回→LED点灯なし＆ブザー&lt;/font&gt;&lt;/li&gt;&lt;li&gt;&lt;font color=&quot;#000000&quot;&gt;拍手7～11回→&amp;nbsp;1～5番目(nー6番目)のLED点灯&lt;/font&gt;&lt;/li&gt;&lt;/ul&gt;&lt;div&gt;&lt;font color=&quot;#000000&quot;&gt;その他&lt;/font&gt;&lt;/div&gt;&lt;/div&gt;&lt;div&gt;&lt;ul&gt;&lt;li&gt;&lt;span&gt;照明のON/OFF、テレビのON/OFF、BGMのON/OFF&amp;nbsp;&lt;/span&gt;&lt;br&gt;&lt;/li&gt;&lt;li&gt;&lt;span&gt;テレビと音楽を同時に流せるか&lt;/span&gt;&lt;/li&gt;&lt;/ul&gt;&lt;/div&gt;&lt;p&gt;&lt;/p&gt;" style="text;html=1;spacing=5;spacingTop=-20;whiteSpace=wrap;overflow=hidden;rounded=0;strokeColor=default;" parent="1MDK5DKHOnpBH_GhgxfY-1" vertex="1">
          <mxGeometry x="620" y="410" width="540" height="330" as="geometry" />
        </mxCell>
      </root>
    </mxGraphModel>
  </diagram>
  <diagram id="5FJB6IGcd5vMrWlHRbPe" name="elect">
    <mxGraphModel dx="1293" dy="693" grid="1" gridSize="10" guides="1" tooltips="1" connect="1" arrows="1" fold="1" page="1" pageScale="1" pageWidth="1169" pageHeight="827" math="0" shadow="0">
      <root>
        <mxCell id="a6fe74fMLb0_221A6J_H-0" />
        <mxCell id="a6fe74fMLb0_221A6J_H-1" parent="a6fe74fMLb0_221A6J_H-0" />
        <mxCell id="a6fe74fMLb0_221A6J_H-3" value="&lt;b style=&quot;font-size: 12px&quot;&gt;&lt;font style=&quot;font-size: 14px&quot;&gt;Arduino Mega&lt;/font&gt;&lt;/b&gt;" style="rounded=0;whiteSpace=wrap;html=1;fontSize=14;fillColor=#dae8fc;strokeColor=#6c8ebf;" parent="a6fe74fMLb0_221A6J_H-1" vertex="1">
          <mxGeometry x="444" y="215" width="280" height="90" as="geometry" />
        </mxCell>
        <mxCell id="a6fe74fMLb0_221A6J_H-16" value="AIN" style="edgeStyle=orthogonalEdgeStyle;rounded=0;orthogonalLoop=1;jettySize=auto;html=1;exitX=0.5;exitY=0;exitDx=0;exitDy=0;entryX=0.5;entryY=1;entryDx=0;entryDy=0;fontSize=14;endArrow=none;endFill=0;" parent="a6fe74fMLb0_221A6J_H-1" source="a6fe74fMLb0_221A6J_H-4" target="a6fe74fMLb0_221A6J_H-14" edge="1">
          <mxGeometry x="0.966" relative="1" as="geometry">
            <Array as="points">
              <mxPoint x="559" y="100" />
              <mxPoint x="280" y="100" />
              <mxPoint x="280" y="481" />
              <mxPoint x="544" y="481" />
            </Array>
            <mxPoint as="offset" />
          </mxGeometry>
        </mxCell>
        <mxCell id="a6fe74fMLb0_221A6J_H-4" value="A0" style="text;html=1;strokeColor=none;fillColor=none;align=center;verticalAlign=middle;whiteSpace=wrap;rounded=0;fontSize=14;" parent="a6fe74fMLb0_221A6J_H-1" vertex="1">
          <mxGeometry x="529" y="215" width="60" height="30" as="geometry" />
        </mxCell>
        <mxCell id="a6fe74fMLb0_221A6J_H-22" value="(+)" style="edgeStyle=orthogonalEdgeStyle;rounded=0;orthogonalLoop=1;jettySize=auto;html=1;exitX=1;exitY=0.5;exitDx=0;exitDy=0;exitPerimeter=0;entryX=1;entryY=0.5;entryDx=0;entryDy=0;fontSize=14;endArrow=none;endFill=0;" parent="a6fe74fMLb0_221A6J_H-1" source="a6fe74fMLb0_221A6J_H-8" target="a6fe74fMLb0_221A6J_H-14" edge="1">
          <mxGeometry relative="1" as="geometry" />
        </mxCell>
        <mxCell id="a6fe74fMLb0_221A6J_H-25" style="edgeStyle=orthogonalEdgeStyle;rounded=0;orthogonalLoop=1;jettySize=auto;html=1;exitX=0;exitY=0.5;exitDx=0;exitDy=0;exitPerimeter=0;entryX=0.5;entryY=0;entryDx=0;entryDy=0;entryPerimeter=0;fontSize=14;endArrow=none;endFill=0;" parent="a6fe74fMLb0_221A6J_H-1" source="a6fe74fMLb0_221A6J_H-8" target="a6fe74fMLb0_221A6J_H-24" edge="1">
          <mxGeometry relative="1" as="geometry" />
        </mxCell>
        <mxCell id="a6fe74fMLb0_221A6J_H-8" value="" style="verticalLabelPosition=bottom;shadow=0;dashed=0;align=center;fillColor=#000000;html=1;verticalAlign=top;strokeWidth=1;shape=mxgraph.electrical.miscellaneous.monocell_battery;fontSize=14;rotation=-180;" parent="a6fe74fMLb0_221A6J_H-1" vertex="1">
          <mxGeometry x="644" y="371" width="100" height="60" as="geometry" />
        </mxCell>
        <mxCell id="a6fe74fMLb0_221A6J_H-9" value="GND" style="text;html=1;strokeColor=none;fillColor=none;align=center;verticalAlign=middle;whiteSpace=wrap;rounded=0;fontSize=14;" parent="a6fe74fMLb0_221A6J_H-1" vertex="1">
          <mxGeometry x="654" y="275" width="60" height="30" as="geometry" />
        </mxCell>
        <mxCell id="a6fe74fMLb0_221A6J_H-12" value="D53" style="text;html=1;strokeColor=none;fillColor=none;align=center;verticalAlign=middle;whiteSpace=wrap;rounded=0;fontSize=14;" parent="a6fe74fMLb0_221A6J_H-1" vertex="1">
          <mxGeometry x="444" y="225" width="50" height="30" as="geometry" />
        </mxCell>
        <mxCell id="a6fe74fMLb0_221A6J_H-15" value="GND" style="edgeStyle=orthogonalEdgeStyle;rounded=0;orthogonalLoop=1;jettySize=auto;html=1;exitX=0;exitY=0.5;exitDx=0;exitDy=0;entryX=0.5;entryY=1;entryDx=0;entryDy=0;fontSize=14;endArrow=none;endFill=0;" parent="a6fe74fMLb0_221A6J_H-1" source="a6fe74fMLb0_221A6J_H-14" target="a6fe74fMLb0_221A6J_H-9" edge="1">
          <mxGeometry x="-0.8558" relative="1" as="geometry">
            <Array as="points">
              <mxPoint x="424" y="401" />
              <mxPoint x="424" y="341" />
              <mxPoint x="684" y="341" />
            </Array>
            <mxPoint as="offset" />
          </mxGeometry>
        </mxCell>
        <mxCell id="a6fe74fMLb0_221A6J_H-14" value="sound sencer module" style="rounded=0;whiteSpace=wrap;html=1;fontSize=14;fillColor=#f8cecc;strokeColor=#b85450;" parent="a6fe74fMLb0_221A6J_H-1" vertex="1">
          <mxGeometry x="484" y="371" width="120" height="60" as="geometry" />
        </mxCell>
        <mxCell id="a6fe74fMLb0_221A6J_H-23" value="5V" style="text;html=1;strokeColor=none;fillColor=none;align=center;verticalAlign=middle;whiteSpace=wrap;rounded=0;fontSize=14;" parent="a6fe74fMLb0_221A6J_H-1" vertex="1">
          <mxGeometry x="664" y="431" width="60" height="30" as="geometry" />
        </mxCell>
        <mxCell id="a6fe74fMLb0_221A6J_H-24" value="" style="pointerEvents=1;verticalLabelPosition=bottom;shadow=0;dashed=0;align=center;html=1;verticalAlign=top;shape=mxgraph.electrical.signal_sources.protective_earth;fontSize=14;" parent="a6fe74fMLb0_221A6J_H-1" vertex="1">
          <mxGeometry x="734" y="451" width="60" height="30" as="geometry" />
        </mxCell>
        <mxCell id="a6fe74fMLb0_221A6J_H-29" value="&lt;b style=&quot;font-size: 12px&quot;&gt;&lt;font style=&quot;font-size: 14px&quot;&gt;Arduino Mega&lt;/font&gt;&lt;/b&gt;" style="rounded=0;whiteSpace=wrap;html=1;fontSize=14;fillColor=#dae8fc;strokeColor=#6c8ebf;" parent="a6fe74fMLb0_221A6J_H-1" vertex="1">
          <mxGeometry x="754" y="744" width="280" height="186" as="geometry" />
        </mxCell>
        <mxCell id="a6fe74fMLb0_221A6J_H-96" value="GND" style="edgeStyle=orthogonalEdgeStyle;rounded=0;orthogonalLoop=1;jettySize=auto;html=1;exitX=0.5;exitY=1;exitDx=0;exitDy=0;entryX=0.33;entryY=0.989;entryDx=0;entryDy=0;entryPerimeter=0;fontSize=14;endArrow=none;endFill=0;" parent="a6fe74fMLb0_221A6J_H-1" source="a6fe74fMLb0_221A6J_H-35" target="a6fe74fMLb0_221A6J_H-95" edge="1">
          <mxGeometry x="0.9493" relative="1" as="geometry">
            <Array as="points">
              <mxPoint x="994" y="970" />
              <mxPoint x="1084" y="970" />
              <mxPoint x="1084" y="700" />
              <mxPoint x="743" y="700" />
            </Array>
            <mxPoint as="offset" />
          </mxGeometry>
        </mxCell>
        <mxCell id="a6fe74fMLb0_221A6J_H-35" value="GND" style="text;html=1;strokeColor=none;fillColor=none;align=center;verticalAlign=middle;whiteSpace=wrap;rounded=0;fontSize=14;" parent="a6fe74fMLb0_221A6J_H-1" vertex="1">
          <mxGeometry x="964" y="899" width="60" height="30" as="geometry" />
        </mxCell>
        <mxCell id="a6fe74fMLb0_221A6J_H-36" value="D50&lt;br&gt;&lt;br&gt;D32&lt;br&gt;D30&lt;br&gt;D28&lt;br&gt;D26&lt;br&gt;D24&lt;br&gt;D22&lt;br&gt;&lt;br&gt;D23" style="text;html=1;strokeColor=none;fillColor=none;align=center;verticalAlign=middle;whiteSpace=wrap;rounded=0;fontSize=14;" parent="a6fe74fMLb0_221A6J_H-1" vertex="1">
          <mxGeometry x="754" y="754" width="40" height="150" as="geometry" />
        </mxCell>
        <mxCell id="a6fe74fMLb0_221A6J_H-85" style="edgeStyle=orthogonalEdgeStyle;rounded=0;orthogonalLoop=1;jettySize=auto;html=1;exitX=1;exitY=0.57;exitDx=0;exitDy=0;exitPerimeter=0;entryX=0.5;entryY=1;entryDx=0;entryDy=0;fontSize=14;endArrow=none;endFill=0;startArrow=none;" parent="a6fe74fMLb0_221A6J_H-1" source="s8RfQ3h4D5lO9OO0TOdr-61" target="a6fe74fMLb0_221A6J_H-35" edge="1">
          <mxGeometry relative="1" as="geometry">
            <Array as="points">
              <mxPoint x="994" y="1006" />
            </Array>
          </mxGeometry>
        </mxCell>
        <mxCell id="a6fe74fMLb0_221A6J_H-37" value="" style="verticalLabelPosition=bottom;shadow=0;dashed=0;align=center;html=1;verticalAlign=top;shape=mxgraph.electrical.opto_electronics.led_2;pointerEvents=1;fontSize=14;rotation=-180;" parent="a6fe74fMLb0_221A6J_H-1" vertex="1">
          <mxGeometry x="569" y="910" width="50" height="30" as="geometry" />
        </mxCell>
        <mxCell id="a6fe74fMLb0_221A6J_H-55" style="edgeStyle=orthogonalEdgeStyle;rounded=0;orthogonalLoop=1;jettySize=auto;html=1;exitX=0;exitY=0.4;exitDx=0;exitDy=0;exitPerimeter=0;entryX=0.5;entryY=1;entryDx=0;entryDy=0;fontSize=14;endArrow=none;endFill=0;startArrow=none;" parent="a6fe74fMLb0_221A6J_H-1" source="s8RfQ3h4D5lO9OO0TOdr-64" target="a6fe74fMLb0_221A6J_H-35" edge="1">
          <mxGeometry relative="1" as="geometry">
            <Array as="points">
              <mxPoint x="994" y="968" />
            </Array>
          </mxGeometry>
        </mxCell>
        <mxCell id="a6fe74fMLb0_221A6J_H-56" style="edgeStyle=orthogonalEdgeStyle;rounded=0;orthogonalLoop=1;jettySize=auto;html=1;exitX=0;exitY=0.6;exitDx=0;exitDy=0;exitPerimeter=0;fontSize=14;endArrow=none;endFill=0;" parent="a6fe74fMLb0_221A6J_H-1" source="a6fe74fMLb0_221A6J_H-42" edge="1">
          <mxGeometry relative="1" as="geometry">
            <mxPoint x="754" y="904" as="targetPoint" />
            <Array as="points">
              <mxPoint x="734" y="994" />
              <mxPoint x="734" y="904" />
            </Array>
          </mxGeometry>
        </mxCell>
        <mxCell id="a6fe74fMLb0_221A6J_H-42" value="" style="pointerEvents=1;verticalLabelPosition=bottom;shadow=0;dashed=0;align=center;html=1;verticalAlign=top;shape=mxgraph.electrical.electro-mechanical.loudspeaker;fontSize=14;rotation=-180;" parent="a6fe74fMLb0_221A6J_H-1" vertex="1">
          <mxGeometry x="684" y="974" width="25" height="50" as="geometry" />
        </mxCell>
        <mxCell id="a6fe74fMLb0_221A6J_H-45" value="Servo Motor" style="text;html=1;strokeColor=none;fillColor=none;align=center;verticalAlign=middle;whiteSpace=wrap;rounded=0;fontSize=14;" parent="a6fe74fMLb0_221A6J_H-1" vertex="1">
          <mxGeometry x="364" y="1520" width="60" height="30" as="geometry" />
        </mxCell>
        <mxCell id="a6fe74fMLb0_221A6J_H-51" style="edgeStyle=orthogonalEdgeStyle;rounded=0;orthogonalLoop=1;jettySize=auto;html=1;exitX=0.75;exitY=0;exitDx=0;exitDy=0;entryX=0.933;entryY=1;entryDx=0;entryDy=0;entryPerimeter=0;fontSize=14;endArrow=none;endFill=0;" parent="a6fe74fMLb0_221A6J_H-1" source="a6fe74fMLb0_221A6J_H-46" edge="1">
          <mxGeometry relative="1" as="geometry">
            <mxPoint x="665.96" y="111" as="targetPoint" />
          </mxGeometry>
        </mxCell>
        <mxCell id="a6fe74fMLb0_221A6J_H-46" value="GND 5V" style="text;html=1;strokeColor=none;fillColor=none;align=center;verticalAlign=middle;whiteSpace=wrap;rounded=0;fontSize=14;" parent="a6fe74fMLb0_221A6J_H-1" vertex="1">
          <mxGeometry x="624" y="215" width="60" height="30" as="geometry" />
        </mxCell>
        <mxCell id="a6fe74fMLb0_221A6J_H-48" style="edgeStyle=orthogonalEdgeStyle;rounded=0;orthogonalLoop=1;jettySize=auto;html=1;exitX=0.7;exitY=1;exitDx=0;exitDy=0;entryX=0.25;entryY=0;entryDx=0;entryDy=0;fontSize=14;endArrow=none;endFill=0;exitPerimeter=0;" parent="a6fe74fMLb0_221A6J_H-1" target="a6fe74fMLb0_221A6J_H-46" edge="1">
          <mxGeometry relative="1" as="geometry">
            <mxPoint x="638" y="111" as="sourcePoint" />
            <Array as="points">
              <mxPoint x="639" y="111" />
            </Array>
          </mxGeometry>
        </mxCell>
        <mxCell id="a6fe74fMLb0_221A6J_H-49" style="edgeStyle=orthogonalEdgeStyle;rounded=0;orthogonalLoop=1;jettySize=auto;html=1;exitX=0.5;exitY=1;exitDx=0;exitDy=0;entryX=0;entryY=0.25;entryDx=0;entryDy=0;fontSize=14;endArrow=none;endFill=0;" parent="a6fe74fMLb0_221A6J_H-1" target="a6fe74fMLb0_221A6J_H-12" edge="1">
          <mxGeometry relative="1" as="geometry">
            <mxPoint x="614" y="111" as="sourcePoint" />
            <Array as="points">
              <mxPoint x="614" y="155" />
              <mxPoint x="424" y="155" />
              <mxPoint x="424" y="233" />
            </Array>
          </mxGeometry>
        </mxCell>
        <mxCell id="a6fe74fMLb0_221A6J_H-52" value="&lt;span&gt;mortion sencer module&lt;/span&gt;" style="ellipse;whiteSpace=wrap;html=1;aspect=fixed;fontSize=14;" parent="a6fe74fMLb0_221A6J_H-1" vertex="1">
          <mxGeometry x="980" y="180" width="110" height="110" as="geometry" />
        </mxCell>
        <mxCell id="a6fe74fMLb0_221A6J_H-54" value="Power Supply module" style="text;html=1;strokeColor=none;fillColor=none;align=center;verticalAlign=middle;whiteSpace=wrap;rounded=0;fontSize=14;" parent="a6fe74fMLb0_221A6J_H-1" vertex="1">
          <mxGeometry x="709" y="355" width="110" height="30" as="geometry" />
        </mxCell>
        <mxCell id="a6fe74fMLb0_221A6J_H-57" value="PWM" style="text;html=1;strokeColor=none;fillColor=none;align=center;verticalAlign=middle;whiteSpace=wrap;rounded=0;fontSize=14;" parent="a6fe74fMLb0_221A6J_H-1" vertex="1">
          <mxGeometry x="874" y="889" width="60" height="30" as="geometry" />
        </mxCell>
        <mxCell id="a6fe74fMLb0_221A6J_H-98" value="CS" style="edgeStyle=orthogonalEdgeStyle;rounded=0;orthogonalLoop=1;jettySize=auto;html=1;exitX=0.75;exitY=1;exitDx=0;exitDy=0;entryX=0.627;entryY=1;entryDx=0;entryDy=0;entryPerimeter=0;fontSize=14;endArrow=none;endFill=0;" parent="a6fe74fMLb0_221A6J_H-1" source="a6fe74fMLb0_221A6J_H-58" target="a6fe74fMLb0_221A6J_H-95" edge="1">
          <mxGeometry x="0.9548" relative="1" as="geometry">
            <Array as="points">
              <mxPoint x="919" y="970" />
              <mxPoint x="832" y="970" />
            </Array>
            <mxPoint as="offset" />
          </mxGeometry>
        </mxCell>
        <mxCell id="a6fe74fMLb0_221A6J_H-58" value="9　10" style="text;html=1;strokeColor=none;fillColor=none;align=center;verticalAlign=middle;whiteSpace=wrap;rounded=0;fontSize=14;" parent="a6fe74fMLb0_221A6J_H-1" vertex="1">
          <mxGeometry x="874" y="905" width="60" height="24" as="geometry" />
        </mxCell>
        <mxCell id="a6fe74fMLb0_221A6J_H-66" value="&amp;nbsp;220Ω" style="text;html=1;strokeColor=none;fillColor=none;align=center;verticalAlign=middle;whiteSpace=wrap;rounded=0;fontSize=14;" parent="a6fe74fMLb0_221A6J_H-1" vertex="1">
          <mxGeometry x="616.5" y="929" width="60" height="30" as="geometry" />
        </mxCell>
        <mxCell id="a6fe74fMLb0_221A6J_H-79" style="edgeStyle=orthogonalEdgeStyle;rounded=0;orthogonalLoop=1;jettySize=auto;html=1;exitX=1;exitY=0.5;exitDx=0;exitDy=0;exitPerimeter=0;fontSize=14;endArrow=none;endFill=0;entryX=0;entryY=0.75;entryDx=0;entryDy=0;" parent="a6fe74fMLb0_221A6J_H-1" source="a6fe74fMLb0_221A6J_H-59" target="a6fe74fMLb0_221A6J_H-36" edge="1">
          <mxGeometry relative="1" as="geometry">
            <Array as="points">
              <mxPoint x="724" y="924" />
              <mxPoint x="724" y="866" />
            </Array>
          </mxGeometry>
        </mxCell>
        <mxCell id="a6fe74fMLb0_221A6J_H-59" value="" style="pointerEvents=1;verticalLabelPosition=bottom;shadow=0;dashed=0;align=center;html=1;verticalAlign=top;shape=mxgraph.electrical.resistors.resistor_2;fontSize=14;" parent="a6fe74fMLb0_221A6J_H-1" vertex="1">
          <mxGeometry x="619" y="918" width="55" height="11" as="geometry" />
        </mxCell>
        <mxCell id="a6fe74fMLb0_221A6J_H-87" style="edgeStyle=orthogonalEdgeStyle;rounded=0;orthogonalLoop=1;jettySize=auto;html=1;exitX=1;exitY=0.57;exitDx=0;exitDy=0;exitPerimeter=0;entryX=1;entryY=0.57;entryDx=0;entryDy=0;entryPerimeter=0;fontSize=14;endArrow=none;endFill=0;" parent="a6fe74fMLb0_221A6J_H-1" source="a6fe74fMLb0_221A6J_H-67" target="a6fe74fMLb0_221A6J_H-37" edge="1">
          <mxGeometry relative="1" as="geometry" />
        </mxCell>
        <mxCell id="a6fe74fMLb0_221A6J_H-67" value="" style="verticalLabelPosition=bottom;shadow=0;dashed=0;align=center;html=1;verticalAlign=top;shape=mxgraph.electrical.opto_electronics.led_2;pointerEvents=1;fontSize=14;rotation=-180;" parent="a6fe74fMLb0_221A6J_H-1" vertex="1">
          <mxGeometry x="569" y="861" width="50" height="30" as="geometry" />
        </mxCell>
        <mxCell id="a6fe74fMLb0_221A6J_H-69" value="&amp;nbsp;220Ω" style="text;html=1;strokeColor=none;fillColor=none;align=center;verticalAlign=middle;whiteSpace=wrap;rounded=0;fontSize=14;" parent="a6fe74fMLb0_221A6J_H-1" vertex="1">
          <mxGeometry x="616.5" y="880" width="60" height="30" as="geometry" />
        </mxCell>
        <mxCell id="a6fe74fMLb0_221A6J_H-81" style="edgeStyle=orthogonalEdgeStyle;rounded=0;orthogonalLoop=1;jettySize=auto;html=1;exitX=1;exitY=0.5;exitDx=0;exitDy=0;exitPerimeter=0;fontSize=14;endArrow=none;endFill=0;" parent="a6fe74fMLb0_221A6J_H-1" source="a6fe74fMLb0_221A6J_H-68" edge="1">
          <mxGeometry relative="1" as="geometry">
            <Array as="points">
              <mxPoint x="714" y="875" />
              <mxPoint x="714" y="850" />
            </Array>
            <mxPoint x="754" y="850" as="targetPoint" />
          </mxGeometry>
        </mxCell>
        <mxCell id="a6fe74fMLb0_221A6J_H-68" value="" style="pointerEvents=1;verticalLabelPosition=bottom;shadow=0;dashed=0;align=center;html=1;verticalAlign=top;shape=mxgraph.electrical.resistors.resistor_2;fontSize=14;" parent="a6fe74fMLb0_221A6J_H-1" vertex="1">
          <mxGeometry x="619" y="869" width="55" height="11" as="geometry" />
        </mxCell>
        <mxCell id="a6fe74fMLb0_221A6J_H-88" style="edgeStyle=orthogonalEdgeStyle;rounded=0;orthogonalLoop=1;jettySize=auto;html=1;exitX=1;exitY=0.57;exitDx=0;exitDy=0;exitPerimeter=0;fontSize=14;endArrow=none;endFill=0;entryX=1;entryY=0.57;entryDx=0;entryDy=0;entryPerimeter=0;" parent="a6fe74fMLb0_221A6J_H-1" source="a6fe74fMLb0_221A6J_H-70" target="a6fe74fMLb0_221A6J_H-37" edge="1">
          <mxGeometry relative="1" as="geometry">
            <mxPoint x="569.5" y="920" as="targetPoint" />
            <Array as="points">
              <mxPoint x="549.5" y="825" />
              <mxPoint x="549.5" y="923" />
            </Array>
          </mxGeometry>
        </mxCell>
        <mxCell id="a6fe74fMLb0_221A6J_H-70" value="" style="verticalLabelPosition=bottom;shadow=0;dashed=0;align=center;html=1;verticalAlign=top;shape=mxgraph.electrical.opto_electronics.led_2;pointerEvents=1;fontSize=14;rotation=-180;" parent="a6fe74fMLb0_221A6J_H-1" vertex="1">
          <mxGeometry x="569" y="812" width="50" height="30" as="geometry" />
        </mxCell>
        <mxCell id="a6fe74fMLb0_221A6J_H-82" style="edgeStyle=orthogonalEdgeStyle;rounded=0;orthogonalLoop=1;jettySize=auto;html=1;exitX=1;exitY=0.5;exitDx=0;exitDy=0;exitPerimeter=0;fontSize=14;endArrow=none;endFill=0;" parent="a6fe74fMLb0_221A6J_H-1" source="a6fe74fMLb0_221A6J_H-71" edge="1">
          <mxGeometry relative="1" as="geometry">
            <Array as="points">
              <mxPoint x="706" y="826" />
              <mxPoint x="706" y="840" />
            </Array>
            <mxPoint x="754" y="840" as="targetPoint" />
          </mxGeometry>
        </mxCell>
        <mxCell id="a6fe74fMLb0_221A6J_H-71" value="" style="pointerEvents=1;verticalLabelPosition=bottom;shadow=0;dashed=0;align=center;html=1;verticalAlign=top;shape=mxgraph.electrical.resistors.resistor_2;fontSize=14;" parent="a6fe74fMLb0_221A6J_H-1" vertex="1">
          <mxGeometry x="619" y="820" width="55" height="11" as="geometry" />
        </mxCell>
        <mxCell id="a6fe74fMLb0_221A6J_H-72" value="&amp;nbsp;220Ω" style="text;html=1;strokeColor=none;fillColor=none;align=center;verticalAlign=middle;whiteSpace=wrap;rounded=0;fontSize=14;" parent="a6fe74fMLb0_221A6J_H-1" vertex="1">
          <mxGeometry x="624" y="834" width="45" height="21" as="geometry" />
        </mxCell>
        <mxCell id="a6fe74fMLb0_221A6J_H-89" style="edgeStyle=orthogonalEdgeStyle;rounded=0;orthogonalLoop=1;jettySize=auto;html=1;exitX=1;exitY=0.57;exitDx=0;exitDy=0;exitPerimeter=0;entryX=1;entryY=0.57;entryDx=0;entryDy=0;entryPerimeter=0;fontSize=14;endArrow=none;endFill=0;" parent="a6fe74fMLb0_221A6J_H-1" source="a6fe74fMLb0_221A6J_H-73" target="a6fe74fMLb0_221A6J_H-37" edge="1">
          <mxGeometry relative="1" as="geometry" />
        </mxCell>
        <mxCell id="a6fe74fMLb0_221A6J_H-73" value="" style="verticalLabelPosition=bottom;shadow=0;dashed=0;align=center;html=1;verticalAlign=top;shape=mxgraph.electrical.opto_electronics.led_2;pointerEvents=1;fontSize=14;rotation=-180;" parent="a6fe74fMLb0_221A6J_H-1" vertex="1">
          <mxGeometry x="569" y="771" width="50" height="30" as="geometry" />
        </mxCell>
        <mxCell id="a6fe74fMLb0_221A6J_H-75" value="&amp;nbsp;220Ω" style="text;html=1;strokeColor=none;fillColor=none;align=center;verticalAlign=middle;whiteSpace=wrap;rounded=0;fontSize=14;" parent="a6fe74fMLb0_221A6J_H-1" vertex="1">
          <mxGeometry x="616.5" y="790" width="60" height="30" as="geometry" />
        </mxCell>
        <mxCell id="a6fe74fMLb0_221A6J_H-83" style="edgeStyle=orthogonalEdgeStyle;rounded=0;orthogonalLoop=1;jettySize=auto;html=1;exitX=1;exitY=0.5;exitDx=0;exitDy=0;exitPerimeter=0;fontSize=14;endArrow=none;endFill=0;" parent="a6fe74fMLb0_221A6J_H-1" source="a6fe74fMLb0_221A6J_H-74" edge="1">
          <mxGeometry relative="1" as="geometry">
            <Array as="points">
              <mxPoint x="714" y="785" />
              <mxPoint x="714" y="820" />
            </Array>
            <mxPoint x="754" y="820" as="targetPoint" />
          </mxGeometry>
        </mxCell>
        <mxCell id="a6fe74fMLb0_221A6J_H-74" value="" style="pointerEvents=1;verticalLabelPosition=bottom;shadow=0;dashed=0;align=center;html=1;verticalAlign=top;shape=mxgraph.electrical.resistors.resistor_2;fontSize=14;" parent="a6fe74fMLb0_221A6J_H-1" vertex="1">
          <mxGeometry x="619" y="779" width="55" height="11" as="geometry" />
        </mxCell>
        <mxCell id="a6fe74fMLb0_221A6J_H-90" style="edgeStyle=orthogonalEdgeStyle;rounded=0;orthogonalLoop=1;jettySize=auto;html=1;exitX=1;exitY=0.57;exitDx=0;exitDy=0;exitPerimeter=0;entryX=1;entryY=0.57;entryDx=0;entryDy=0;entryPerimeter=0;fontSize=14;endArrow=none;endFill=0;" parent="a6fe74fMLb0_221A6J_H-1" source="a6fe74fMLb0_221A6J_H-76" target="a6fe74fMLb0_221A6J_H-70" edge="1">
          <mxGeometry relative="1" as="geometry" />
        </mxCell>
        <mxCell id="a6fe74fMLb0_221A6J_H-76" value="" style="verticalLabelPosition=bottom;shadow=0;dashed=0;align=center;html=1;verticalAlign=top;shape=mxgraph.electrical.opto_electronics.led_2;pointerEvents=1;fontSize=14;rotation=-180;" parent="a6fe74fMLb0_221A6J_H-1" vertex="1">
          <mxGeometry x="569" y="730" width="50" height="30" as="geometry" />
        </mxCell>
        <mxCell id="a6fe74fMLb0_221A6J_H-84" style="edgeStyle=orthogonalEdgeStyle;rounded=0;orthogonalLoop=1;jettySize=auto;html=1;exitX=1;exitY=0.5;exitDx=0;exitDy=0;exitPerimeter=0;entryX=-0.025;entryY=0.351;entryDx=0;entryDy=0;entryPerimeter=0;fontSize=14;endArrow=none;endFill=0;" parent="a6fe74fMLb0_221A6J_H-1" source="a6fe74fMLb0_221A6J_H-77" target="a6fe74fMLb0_221A6J_H-36" edge="1">
          <mxGeometry relative="1" as="geometry">
            <Array as="points">
              <mxPoint x="724" y="744" />
              <mxPoint x="724" y="807" />
              <mxPoint x="753" y="807" />
            </Array>
          </mxGeometry>
        </mxCell>
        <mxCell id="a6fe74fMLb0_221A6J_H-77" value="" style="pointerEvents=1;verticalLabelPosition=bottom;shadow=0;dashed=0;align=center;html=1;verticalAlign=top;shape=mxgraph.electrical.resistors.resistor_2;fontSize=14;" parent="a6fe74fMLb0_221A6J_H-1" vertex="1">
          <mxGeometry x="619" y="738" width="55" height="11" as="geometry" />
        </mxCell>
        <mxCell id="a6fe74fMLb0_221A6J_H-78" value="&amp;nbsp;220Ω" style="text;html=1;strokeColor=none;fillColor=none;align=center;verticalAlign=middle;whiteSpace=wrap;rounded=0;fontSize=14;" parent="a6fe74fMLb0_221A6J_H-1" vertex="1">
          <mxGeometry x="616.5" y="749" width="60" height="30" as="geometry" />
        </mxCell>
        <mxCell id="a6fe74fMLb0_221A6J_H-92" value="CLK" style="edgeStyle=orthogonalEdgeStyle;rounded=0;orthogonalLoop=1;jettySize=auto;html=1;exitX=0.75;exitY=1;exitDx=0;exitDy=0;entryX=0.012;entryY=0.073;entryDx=0;entryDy=0;entryPerimeter=0;fontSize=14;endArrow=none;endFill=0;" parent="a6fe74fMLb0_221A6J_H-1" source="a6fe74fMLb0_221A6J_H-95" target="a6fe74fMLb0_221A6J_H-29" edge="1">
          <mxGeometry x="-0.9119" relative="1" as="geometry">
            <mxPoint x="819" y="700" as="sourcePoint" />
            <Array as="points">
              <mxPoint x="869" y="712" />
              <mxPoint x="744" y="712" />
              <mxPoint x="744" y="758" />
              <mxPoint x="757" y="758" />
            </Array>
            <mxPoint as="offset" />
          </mxGeometry>
        </mxCell>
        <mxCell id="a6fe74fMLb0_221A6J_H-94" value="VCC" style="edgeStyle=orthogonalEdgeStyle;rounded=0;orthogonalLoop=1;jettySize=auto;html=1;exitX=0.5;exitY=0;exitDx=0;exitDy=0;entryX=0.177;entryY=1.022;entryDx=0;entryDy=0;fontSize=14;endArrow=none;endFill=0;entryPerimeter=0;" parent="a6fe74fMLb0_221A6J_H-1" source="a6fe74fMLb0_221A6J_H-93" target="a6fe74fMLb0_221A6J_H-95" edge="1">
          <mxGeometry x="0.9043" relative="1" as="geometry">
            <mxPoint x="786.5" y="700" as="targetPoint" />
            <Array as="points">
              <mxPoint x="944" y="720" />
              <mxPoint x="697" y="720" />
            </Array>
            <mxPoint as="offset" />
          </mxGeometry>
        </mxCell>
        <mxCell id="a6fe74fMLb0_221A6J_H-93" value="5V" style="text;html=1;strokeColor=none;fillColor=none;align=center;verticalAlign=middle;whiteSpace=wrap;rounded=0;fontSize=14;" parent="a6fe74fMLb0_221A6J_H-1" vertex="1">
          <mxGeometry x="914" y="744" width="60" height="24" as="geometry" />
        </mxCell>
        <mxCell id="a6fe74fMLb0_221A6J_H-97" value="DIN" style="edgeStyle=orthogonalEdgeStyle;rounded=0;orthogonalLoop=1;jettySize=auto;html=1;exitX=0.5;exitY=1;exitDx=0;exitDy=0;entryX=0.25;entryY=1;entryDx=0;entryDy=0;fontSize=14;endArrow=none;endFill=0;" parent="a6fe74fMLb0_221A6J_H-1" source="a6fe74fMLb0_221A6J_H-95" target="a6fe74fMLb0_221A6J_H-58" edge="1">
          <mxGeometry x="-0.9472" relative="1" as="geometry">
            <mxPoint as="offset" />
          </mxGeometry>
        </mxCell>
        <mxCell id="a6fe74fMLb0_221A6J_H-95" value="MAX7219" style="rounded=0;whiteSpace=wrap;html=1;fontSize=14;" parent="a6fe74fMLb0_221A6J_H-1" vertex="1">
          <mxGeometry x="644" y="580" width="300" height="90" as="geometry" />
        </mxCell>
        <mxCell id="s8RfQ3h4D5lO9OO0TOdr-0" value="&lt;b style=&quot;font-size: 12px&quot;&gt;&lt;font style=&quot;font-size: 14px&quot;&gt;Arduino Mega&lt;/font&gt;&lt;/b&gt;" style="rounded=0;whiteSpace=wrap;html=1;fontSize=14;fillColor=#dae8fc;strokeColor=#6c8ebf;" vertex="1" parent="a6fe74fMLb0_221A6J_H-1">
          <mxGeometry x="424" y="1220" width="280" height="150" as="geometry" />
        </mxCell>
        <mxCell id="s8RfQ3h4D5lO9OO0TOdr-1" value="D49" style="text;html=1;strokeColor=none;fillColor=none;align=center;verticalAlign=middle;whiteSpace=wrap;rounded=0;" vertex="1" parent="a6fe74fMLb0_221A6J_H-1">
          <mxGeometry x="424" y="1251" width="30" height="30" as="geometry" />
        </mxCell>
        <mxCell id="s8RfQ3h4D5lO9OO0TOdr-95" style="edgeStyle=orthogonalEdgeStyle;rounded=0;orthogonalLoop=1;jettySize=auto;html=1;exitX=0.5;exitY=0;exitDx=0;exitDy=0;entryX=0.25;entryY=0;entryDx=0;entryDy=0;fontSize=12;endArrow=none;endFill=0;" edge="1" parent="a6fe74fMLb0_221A6J_H-1" source="s8RfQ3h4D5lO9OO0TOdr-2" target="s8RfQ3h4D5lO9OO0TOdr-92">
          <mxGeometry relative="1" as="geometry">
            <Array as="points">
              <mxPoint x="507" y="1130" />
              <mxPoint x="182" y="1130" />
            </Array>
          </mxGeometry>
        </mxCell>
        <mxCell id="s8RfQ3h4D5lO9OO0TOdr-2" value="A7" style="text;html=1;strokeColor=none;fillColor=none;align=center;verticalAlign=middle;whiteSpace=wrap;rounded=0;" vertex="1" parent="a6fe74fMLb0_221A6J_H-1">
          <mxGeometry x="491.5" y="1220" width="30" height="17" as="geometry" />
        </mxCell>
        <mxCell id="s8RfQ3h4D5lO9OO0TOdr-3" value="PWM" style="text;html=1;strokeColor=none;fillColor=none;align=center;verticalAlign=middle;whiteSpace=wrap;rounded=0;fontSize=14;" vertex="1" parent="a6fe74fMLb0_221A6J_H-1">
          <mxGeometry x="564" y="1330" width="60" height="30" as="geometry" />
        </mxCell>
        <mxCell id="s8RfQ3h4D5lO9OO0TOdr-13" style="edgeStyle=orthogonalEdgeStyle;rounded=0;orthogonalLoop=1;jettySize=auto;html=1;exitX=0.5;exitY=1;exitDx=0;exitDy=0;entryX=0;entryY=0.6;entryDx=0;entryDy=0;entryPerimeter=0;fontSize=15;endArrow=none;endFill=0;" edge="1" parent="a6fe74fMLb0_221A6J_H-1" source="s8RfQ3h4D5lO9OO0TOdr-45" target="s8RfQ3h4D5lO9OO0TOdr-12">
          <mxGeometry relative="1" as="geometry">
            <Array as="points">
              <mxPoint x="554" y="1370" />
              <mxPoint x="554" y="1530" />
            </Array>
          </mxGeometry>
        </mxCell>
        <mxCell id="s8RfQ3h4D5lO9OO0TOdr-4" value="6" style="text;html=1;strokeColor=none;fillColor=none;align=center;verticalAlign=middle;whiteSpace=wrap;rounded=0;fontSize=14;" vertex="1" parent="a6fe74fMLb0_221A6J_H-1">
          <mxGeometry x="559" y="1346" width="30" height="24" as="geometry" />
        </mxCell>
        <mxCell id="s8RfQ3h4D5lO9OO0TOdr-20" style="edgeStyle=orthogonalEdgeStyle;rounded=0;orthogonalLoop=1;jettySize=auto;html=1;exitX=0.5;exitY=1;exitDx=0;exitDy=0;entryX=0.5;entryY=0;entryDx=0;entryDy=0;fontSize=15;endArrow=none;endFill=0;" edge="1" parent="a6fe74fMLb0_221A6J_H-1" source="s8RfQ3h4D5lO9OO0TOdr-5" target="s8RfQ3h4D5lO9OO0TOdr-19">
          <mxGeometry relative="1" as="geometry">
            <Array as="points">
              <mxPoint x="607" y="1440" />
              <mxPoint x="799" y="1440" />
            </Array>
          </mxGeometry>
        </mxCell>
        <mxCell id="s8RfQ3h4D5lO9OO0TOdr-5" value="11" style="text;html=1;strokeColor=none;fillColor=none;align=center;verticalAlign=middle;whiteSpace=wrap;rounded=0;fontSize=14;" vertex="1" parent="a6fe74fMLb0_221A6J_H-1">
          <mxGeometry x="591.5" y="1346" width="30" height="24" as="geometry" />
        </mxCell>
        <mxCell id="s8RfQ3h4D5lO9OO0TOdr-6" value="3" style="text;html=1;strokeColor=none;fillColor=none;align=center;verticalAlign=middle;whiteSpace=wrap;rounded=0;fontSize=14;" vertex="1" parent="a6fe74fMLb0_221A6J_H-1">
          <mxGeometry x="514" y="1346" width="30" height="24" as="geometry" />
        </mxCell>
        <mxCell id="s8RfQ3h4D5lO9OO0TOdr-9" style="edgeStyle=orthogonalEdgeStyle;rounded=0;orthogonalLoop=1;jettySize=auto;html=1;exitX=0;exitY=0.5;exitDx=0;exitDy=0;entryX=0;entryY=0.5;entryDx=0;entryDy=0;fontSize=15;endArrow=none;endFill=0;startArrow=none;" edge="1" parent="a6fe74fMLb0_221A6J_H-1" source="s8RfQ3h4D5lO9OO0TOdr-66" target="s8RfQ3h4D5lO9OO0TOdr-8">
          <mxGeometry relative="1" as="geometry">
            <Array as="points">
              <mxPoint x="394" y="1460" />
              <mxPoint x="394" y="1505" />
            </Array>
          </mxGeometry>
        </mxCell>
        <mxCell id="s8RfQ3h4D5lO9OO0TOdr-7" value="5V" style="text;html=1;strokeColor=none;fillColor=none;align=center;verticalAlign=middle;whiteSpace=wrap;rounded=0;" vertex="1" parent="a6fe74fMLb0_221A6J_H-1">
          <mxGeometry x="424" y="1340" width="30" height="30" as="geometry" />
        </mxCell>
        <mxCell id="s8RfQ3h4D5lO9OO0TOdr-10" style="edgeStyle=orthogonalEdgeStyle;rounded=0;orthogonalLoop=1;jettySize=auto;html=1;exitX=1;exitY=0.5;exitDx=0;exitDy=0;entryX=0.5;entryY=1;entryDx=0;entryDy=0;fontSize=15;endArrow=none;endFill=0;" edge="1" parent="a6fe74fMLb0_221A6J_H-1" source="s8RfQ3h4D5lO9OO0TOdr-8" target="s8RfQ3h4D5lO9OO0TOdr-6">
          <mxGeometry relative="1" as="geometry" />
        </mxCell>
        <mxCell id="s8RfQ3h4D5lO9OO0TOdr-11" value="Active Buzzer" style="text;html=1;strokeColor=none;fillColor=none;align=center;verticalAlign=middle;whiteSpace=wrap;rounded=0;fontSize=14;" vertex="1" parent="a6fe74fMLb0_221A6J_H-1">
          <mxGeometry x="674" y="1040" width="60" height="30" as="geometry" />
        </mxCell>
        <mxCell id="s8RfQ3h4D5lO9OO0TOdr-17" style="edgeStyle=orthogonalEdgeStyle;rounded=0;orthogonalLoop=1;jettySize=auto;html=1;exitX=0;exitY=0.4;exitDx=0;exitDy=0;exitPerimeter=0;entryX=1;entryY=0;entryDx=0;entryDy=0;fontSize=15;endArrow=none;endFill=0;startArrow=none;" edge="1" parent="a6fe74fMLb0_221A6J_H-1" source="s8RfQ3h4D5lO9OO0TOdr-8" target="a6fe74fMLb0_221A6J_H-45">
          <mxGeometry relative="1" as="geometry">
            <Array as="points" />
          </mxGeometry>
        </mxCell>
        <mxCell id="s8RfQ3h4D5lO9OO0TOdr-12" value="" style="pointerEvents=1;verticalLabelPosition=bottom;shadow=0;dashed=0;align=center;html=1;verticalAlign=top;shape=mxgraph.electrical.electro-mechanical.loudspeaker;fontSize=14;rotation=-180;" vertex="1" parent="a6fe74fMLb0_221A6J_H-1">
          <mxGeometry x="519" y="1510" width="25" height="50" as="geometry" />
        </mxCell>
        <mxCell id="s8RfQ3h4D5lO9OO0TOdr-14" value="Passive Buzzer" style="text;html=1;strokeColor=none;fillColor=none;align=center;verticalAlign=middle;whiteSpace=wrap;rounded=0;fontSize=14;" vertex="1" parent="a6fe74fMLb0_221A6J_H-1">
          <mxGeometry x="459" y="1520" width="60" height="30" as="geometry" />
        </mxCell>
        <mxCell id="s8RfQ3h4D5lO9OO0TOdr-16" style="edgeStyle=orthogonalEdgeStyle;rounded=0;orthogonalLoop=1;jettySize=auto;html=1;exitX=0;exitY=0.5;exitDx=0;exitDy=0;entryX=0.5;entryY=1;entryDx=0;entryDy=0;fontSize=15;endArrow=none;endFill=0;" edge="1" parent="a6fe74fMLb0_221A6J_H-1" source="s8RfQ3h4D5lO9OO0TOdr-15" target="s8RfQ3h4D5lO9OO0TOdr-8">
          <mxGeometry relative="1" as="geometry">
            <Array as="points">
              <mxPoint x="314" y="1235" />
              <mxPoint x="314" y="1570" />
              <mxPoint x="434" y="1570" />
            </Array>
          </mxGeometry>
        </mxCell>
        <mxCell id="s8RfQ3h4D5lO9OO0TOdr-15" value="GND" style="text;html=1;strokeColor=none;fillColor=none;align=center;verticalAlign=middle;whiteSpace=wrap;rounded=0;" vertex="1" parent="a6fe74fMLb0_221A6J_H-1">
          <mxGeometry x="424" y="1220" width="30" height="30" as="geometry" />
        </mxCell>
        <mxCell id="s8RfQ3h4D5lO9OO0TOdr-18" value="LCD 1602 Module" style="rounded=0;whiteSpace=wrap;html=1;fontSize=14;fillColor=#d5e8d4;strokeColor=#82b366;" vertex="1" parent="a6fe74fMLb0_221A6J_H-1">
          <mxGeometry x="634" y="1510" width="350" height="90" as="geometry" />
        </mxCell>
        <mxCell id="s8RfQ3h4D5lO9OO0TOdr-19" value="E" style="text;html=1;strokeColor=none;fillColor=none;align=center;verticalAlign=middle;whiteSpace=wrap;rounded=0;fontSize=14;" vertex="1" parent="a6fe74fMLb0_221A6J_H-1">
          <mxGeometry x="784" y="1510" width="30" height="24" as="geometry" />
        </mxCell>
        <mxCell id="s8RfQ3h4D5lO9OO0TOdr-24" style="edgeStyle=orthogonalEdgeStyle;rounded=0;orthogonalLoop=1;jettySize=auto;html=1;exitX=0.5;exitY=0;exitDx=0;exitDy=0;entryX=0;entryY=0.5;entryDx=0;entryDy=0;fontSize=15;endArrow=none;endFill=0;" edge="1" parent="a6fe74fMLb0_221A6J_H-1" source="s8RfQ3h4D5lO9OO0TOdr-22" target="s8RfQ3h4D5lO9OO0TOdr-7">
          <mxGeometry relative="1" as="geometry">
            <Array as="points">
              <mxPoint x="692" y="1460" />
              <mxPoint x="394" y="1460" />
              <mxPoint x="394" y="1355" />
            </Array>
          </mxGeometry>
        </mxCell>
        <mxCell id="s8RfQ3h4D5lO9OO0TOdr-22" value="VDD" style="text;html=1;strokeColor=none;fillColor=none;align=center;verticalAlign=middle;whiteSpace=wrap;rounded=0;fontSize=14;" vertex="1" parent="a6fe74fMLb0_221A6J_H-1">
          <mxGeometry x="676.5" y="1510" width="30" height="24" as="geometry" />
        </mxCell>
        <mxCell id="s8RfQ3h4D5lO9OO0TOdr-27" style="edgeStyle=orthogonalEdgeStyle;rounded=0;orthogonalLoop=1;jettySize=auto;html=1;exitX=0.5;exitY=0;exitDx=0;exitDy=0;entryX=0.5;entryY=1;entryDx=0;entryDy=0;fontSize=15;endArrow=none;endFill=0;startArrow=none;" edge="1" parent="a6fe74fMLb0_221A6J_H-1" source="s8RfQ3h4D5lO9OO0TOdr-74" target="s8RfQ3h4D5lO9OO0TOdr-8">
          <mxGeometry relative="1" as="geometry">
            <Array as="points">
              <mxPoint x="659" y="1490" />
              <mxPoint x="604" y="1490" />
              <mxPoint x="604" y="1570" />
              <mxPoint x="434" y="1570" />
            </Array>
          </mxGeometry>
        </mxCell>
        <mxCell id="s8RfQ3h4D5lO9OO0TOdr-77" style="edgeStyle=orthogonalEdgeStyle;rounded=0;orthogonalLoop=1;jettySize=auto;html=1;exitX=0.5;exitY=0;exitDx=0;exitDy=0;entryX=0.5;entryY=0;entryDx=0;entryDy=0;fontSize=15;endArrow=none;endFill=0;" edge="1" parent="a6fe74fMLb0_221A6J_H-1" source="s8RfQ3h4D5lO9OO0TOdr-23" target="s8RfQ3h4D5lO9OO0TOdr-35">
          <mxGeometry relative="1" as="geometry" />
        </mxCell>
        <mxCell id="s8RfQ3h4D5lO9OO0TOdr-23" value="VSS" style="text;html=1;strokeColor=none;fillColor=none;align=center;verticalAlign=middle;whiteSpace=wrap;rounded=0;fontSize=14;" vertex="1" parent="a6fe74fMLb0_221A6J_H-1">
          <mxGeometry x="644" y="1510" width="30" height="24" as="geometry" />
        </mxCell>
        <mxCell id="s8RfQ3h4D5lO9OO0TOdr-8" value="&lt;font style=&quot;font-size: 15px&quot;&gt;M&lt;/font&gt;" style="ellipse;whiteSpace=wrap;html=1;aspect=fixed;fillColor=#0050ef;fontColor=#ffffff;strokeColor=#001DBC;" vertex="1" parent="a6fe74fMLb0_221A6J_H-1">
          <mxGeometry x="414" y="1485" width="40" height="40" as="geometry" />
        </mxCell>
        <mxCell id="s8RfQ3h4D5lO9OO0TOdr-26" value="" style="edgeStyle=orthogonalEdgeStyle;rounded=0;orthogonalLoop=1;jettySize=auto;html=1;exitX=0;exitY=0.4;exitDx=0;exitDy=0;exitPerimeter=0;fontSize=15;endArrow=none;endFill=0;" edge="1" parent="a6fe74fMLb0_221A6J_H-1" source="s8RfQ3h4D5lO9OO0TOdr-12">
          <mxGeometry relative="1" as="geometry">
            <mxPoint x="544" y="1540" as="sourcePoint" />
            <mxPoint x="434" y="1530" as="targetPoint" />
            <Array as="points">
              <mxPoint x="554" y="1540" />
              <mxPoint x="554" y="1570" />
              <mxPoint x="434" y="1570" />
            </Array>
          </mxGeometry>
        </mxCell>
        <mxCell id="s8RfQ3h4D5lO9OO0TOdr-28" value="D4" style="text;html=1;strokeColor=none;fillColor=none;align=center;verticalAlign=middle;whiteSpace=wrap;rounded=0;fontSize=14;" vertex="1" parent="a6fe74fMLb0_221A6J_H-1">
          <mxGeometry x="814" y="1510" width="30" height="24" as="geometry" />
        </mxCell>
        <mxCell id="s8RfQ3h4D5lO9OO0TOdr-29" value="D5" style="text;html=1;strokeColor=none;fillColor=none;align=center;verticalAlign=middle;whiteSpace=wrap;rounded=0;fontSize=14;" vertex="1" parent="a6fe74fMLb0_221A6J_H-1">
          <mxGeometry x="844" y="1510" width="30" height="24" as="geometry" />
        </mxCell>
        <mxCell id="s8RfQ3h4D5lO9OO0TOdr-30" value="D6" style="text;html=1;strokeColor=none;fillColor=none;align=center;verticalAlign=middle;whiteSpace=wrap;rounded=0;fontSize=14;" vertex="1" parent="a6fe74fMLb0_221A6J_H-1">
          <mxGeometry x="874" y="1510" width="30" height="24" as="geometry" />
        </mxCell>
        <mxCell id="s8RfQ3h4D5lO9OO0TOdr-31" value="D7" style="text;html=1;strokeColor=none;fillColor=none;align=center;verticalAlign=middle;whiteSpace=wrap;rounded=0;fontSize=14;" vertex="1" parent="a6fe74fMLb0_221A6J_H-1">
          <mxGeometry x="899" y="1510" width="30" height="24" as="geometry" />
        </mxCell>
        <mxCell id="s8RfQ3h4D5lO9OO0TOdr-32" value="A" style="text;html=1;strokeColor=none;fillColor=none;align=center;verticalAlign=middle;whiteSpace=wrap;rounded=0;fontSize=14;" vertex="1" parent="a6fe74fMLb0_221A6J_H-1">
          <mxGeometry x="929" y="1510" width="30" height="24" as="geometry" />
        </mxCell>
        <mxCell id="s8RfQ3h4D5lO9OO0TOdr-36" style="edgeStyle=orthogonalEdgeStyle;rounded=0;orthogonalLoop=1;jettySize=auto;html=1;exitX=0.5;exitY=0;exitDx=0;exitDy=0;entryX=0;entryY=0.4;entryDx=0;entryDy=0;entryPerimeter=0;fontSize=15;endArrow=none;endFill=0;" edge="1" parent="a6fe74fMLb0_221A6J_H-1" source="s8RfQ3h4D5lO9OO0TOdr-35" target="s8RfQ3h4D5lO9OO0TOdr-12">
          <mxGeometry relative="1" as="geometry">
            <Array as="points">
              <mxPoint x="779" y="1490" />
              <mxPoint x="604" y="1490" />
              <mxPoint x="604" y="1570" />
              <mxPoint x="554" y="1570" />
              <mxPoint x="554" y="1540" />
            </Array>
          </mxGeometry>
        </mxCell>
        <mxCell id="s8RfQ3h4D5lO9OO0TOdr-40" style="edgeStyle=orthogonalEdgeStyle;rounded=0;orthogonalLoop=1;jettySize=auto;html=1;exitX=0.5;exitY=0;exitDx=0;exitDy=0;entryX=0.5;entryY=0;entryDx=0;entryDy=0;fontSize=15;endArrow=none;endFill=0;startArrow=none;" edge="1" parent="a6fe74fMLb0_221A6J_H-1" source="s8RfQ3h4D5lO9OO0TOdr-72" target="s8RfQ3h4D5lO9OO0TOdr-35">
          <mxGeometry relative="1" as="geometry">
            <Array as="points">
              <mxPoint x="779" y="1490" />
            </Array>
          </mxGeometry>
        </mxCell>
        <mxCell id="s8RfQ3h4D5lO9OO0TOdr-34" value="K" style="text;html=1;strokeColor=none;fillColor=none;align=center;verticalAlign=middle;whiteSpace=wrap;rounded=0;fontSize=14;" vertex="1" parent="a6fe74fMLb0_221A6J_H-1">
          <mxGeometry x="954" y="1510" width="30" height="24" as="geometry" />
        </mxCell>
        <mxCell id="s8RfQ3h4D5lO9OO0TOdr-35" value="RW" style="text;html=1;strokeColor=none;fillColor=none;align=center;verticalAlign=middle;whiteSpace=wrap;rounded=0;fontSize=14;" vertex="1" parent="a6fe74fMLb0_221A6J_H-1">
          <mxGeometry x="764" y="1510" width="30" height="24" as="geometry" />
        </mxCell>
        <mxCell id="s8RfQ3h4D5lO9OO0TOdr-37" value="V0" style="text;html=1;strokeColor=none;fillColor=none;align=center;verticalAlign=middle;whiteSpace=wrap;rounded=0;fontSize=14;" vertex="1" parent="a6fe74fMLb0_221A6J_H-1">
          <mxGeometry x="709" y="1510" width="30" height="24" as="geometry" />
        </mxCell>
        <mxCell id="s8RfQ3h4D5lO9OO0TOdr-57" style="edgeStyle=orthogonalEdgeStyle;rounded=0;orthogonalLoop=1;jettySize=auto;html=1;exitX=0.5;exitY=0;exitDx=0;exitDy=0;entryX=1;entryY=1;entryDx=0;entryDy=0;fontSize=15;endArrow=none;endFill=0;" edge="1" parent="a6fe74fMLb0_221A6J_H-1" source="s8RfQ3h4D5lO9OO0TOdr-39" target="s8RfQ3h4D5lO9OO0TOdr-45">
          <mxGeometry relative="1" as="geometry">
            <Array as="points">
              <mxPoint x="749" y="1420" />
              <mxPoint x="574" y="1420" />
            </Array>
          </mxGeometry>
        </mxCell>
        <mxCell id="s8RfQ3h4D5lO9OO0TOdr-39" value="RS" style="text;html=1;strokeColor=none;fillColor=none;align=center;verticalAlign=middle;whiteSpace=wrap;rounded=0;fontSize=14;" vertex="1" parent="a6fe74fMLb0_221A6J_H-1">
          <mxGeometry x="734" y="1510" width="30" height="24" as="geometry" />
        </mxCell>
        <mxCell id="s8RfQ3h4D5lO9OO0TOdr-42" value="&amp;nbsp;220Ω" style="text;html=1;strokeColor=none;fillColor=none;align=center;verticalAlign=middle;whiteSpace=wrap;rounded=0;fontSize=14;" vertex="1" parent="a6fe74fMLb0_221A6J_H-1">
          <mxGeometry x="944" y="1455" width="60" height="30" as="geometry" />
        </mxCell>
        <mxCell id="s8RfQ3h4D5lO9OO0TOdr-44" style="edgeStyle=orthogonalEdgeStyle;rounded=0;orthogonalLoop=1;jettySize=auto;html=1;exitX=0;exitY=0.5;exitDx=0;exitDy=0;exitPerimeter=0;entryX=0.5;entryY=0;entryDx=0;entryDy=0;fontSize=15;endArrow=none;endFill=0;startArrow=none;" edge="1" parent="a6fe74fMLb0_221A6J_H-1" source="s8RfQ3h4D5lO9OO0TOdr-68" target="s8RfQ3h4D5lO9OO0TOdr-22">
          <mxGeometry relative="1" as="geometry">
            <Array as="points">
              <mxPoint x="692" y="1459" />
            </Array>
          </mxGeometry>
        </mxCell>
        <mxCell id="s8RfQ3h4D5lO9OO0TOdr-43" value="" style="pointerEvents=1;verticalLabelPosition=bottom;shadow=0;dashed=0;align=center;html=1;verticalAlign=top;shape=mxgraph.electrical.resistors.resistor_2;fontSize=14;rotation=90;" vertex="1" parent="a6fe74fMLb0_221A6J_H-1">
          <mxGeometry x="916.5" y="1481" width="55" height="11" as="geometry" />
        </mxCell>
        <mxCell id="s8RfQ3h4D5lO9OO0TOdr-45" value="5" style="text;html=1;strokeColor=none;fillColor=none;align=center;verticalAlign=middle;whiteSpace=wrap;rounded=0;fontSize=14;" vertex="1" parent="a6fe74fMLb0_221A6J_H-1">
          <mxGeometry x="544" y="1346" width="30" height="24" as="geometry" />
        </mxCell>
        <mxCell id="s8RfQ3h4D5lO9OO0TOdr-78" style="edgeStyle=orthogonalEdgeStyle;rounded=0;orthogonalLoop=1;jettySize=auto;html=1;exitX=1;exitY=0.57;exitDx=0;exitDy=0;exitPerimeter=0;entryX=0;entryY=0.5;entryDx=0;entryDy=0;fontSize=15;endArrow=none;endFill=0;startArrow=none;" edge="1" parent="a6fe74fMLb0_221A6J_H-1" source="s8RfQ3h4D5lO9OO0TOdr-83" target="s8RfQ3h4D5lO9OO0TOdr-15">
          <mxGeometry relative="1" as="geometry">
            <Array as="points">
              <mxPoint x="314" y="1235" />
            </Array>
          </mxGeometry>
        </mxCell>
        <mxCell id="s8RfQ3h4D5lO9OO0TOdr-48" value="" style="verticalLabelPosition=bottom;shadow=0;dashed=0;align=center;html=1;verticalAlign=top;shape=mxgraph.electrical.opto_electronics.led_2;pointerEvents=1;fontSize=14;rotation=-180;" vertex="1" parent="a6fe74fMLb0_221A6J_H-1">
          <mxGeometry x="320.25" y="1251" width="50" height="30" as="geometry" />
        </mxCell>
        <mxCell id="s8RfQ3h4D5lO9OO0TOdr-49" value="&amp;nbsp;220Ω" style="text;html=1;strokeColor=none;fillColor=none;align=center;verticalAlign=middle;whiteSpace=wrap;rounded=0;fontSize=14;" vertex="1" parent="a6fe74fMLb0_221A6J_H-1">
          <mxGeometry x="366.5" y="1270" width="60" height="30" as="geometry" />
        </mxCell>
        <mxCell id="s8RfQ3h4D5lO9OO0TOdr-50" value="" style="pointerEvents=1;verticalLabelPosition=bottom;shadow=0;dashed=0;align=center;html=1;verticalAlign=top;shape=mxgraph.electrical.resistors.resistor_2;fontSize=14;" vertex="1" parent="a6fe74fMLb0_221A6J_H-1">
          <mxGeometry x="370.25" y="1259" width="51.25" height="11" as="geometry" />
        </mxCell>
        <mxCell id="s8RfQ3h4D5lO9OO0TOdr-53" style="edgeStyle=orthogonalEdgeStyle;rounded=0;orthogonalLoop=1;jettySize=auto;html=1;exitX=0;exitY=0.5;exitDx=0;exitDy=0;exitPerimeter=0;fontSize=15;endArrow=none;endFill=0;entryX=0.5;entryY=0;entryDx=0;entryDy=0;" edge="1" parent="a6fe74fMLb0_221A6J_H-1" source="s8RfQ3h4D5lO9OO0TOdr-52" target="s8RfQ3h4D5lO9OO0TOdr-58">
          <mxGeometry relative="1" as="geometry">
            <mxPoint x="644" y="1210" as="targetPoint" />
            <Array as="points">
              <mxPoint x="724" y="1210" />
              <mxPoint x="669" y="1210" />
            </Array>
          </mxGeometry>
        </mxCell>
        <mxCell id="s8RfQ3h4D5lO9OO0TOdr-54" value="10kΩ" style="edgeStyle=orthogonalEdgeStyle;rounded=0;orthogonalLoop=1;jettySize=auto;html=1;exitX=1;exitY=0.5;exitDx=0;exitDy=0;exitPerimeter=0;entryX=0.5;entryY=0;entryDx=0;entryDy=0;fontSize=15;endArrow=none;endFill=0;" edge="1" parent="a6fe74fMLb0_221A6J_H-1" source="s8RfQ3h4D5lO9OO0TOdr-52" target="s8RfQ3h4D5lO9OO0TOdr-37">
          <mxGeometry x="-0.2881" y="-10" relative="1" as="geometry">
            <Array as="points">
              <mxPoint x="814" y="1325" />
              <mxPoint x="814" y="1360" />
              <mxPoint x="724" y="1360" />
            </Array>
            <mxPoint as="offset" />
          </mxGeometry>
        </mxCell>
        <mxCell id="s8RfQ3h4D5lO9OO0TOdr-52" value="" style="pointerEvents=1;verticalLabelPosition=bottom;shadow=0;dashed=0;align=center;html=1;verticalAlign=top;shape=mxgraph.electrical.resistors.variable_resistor_2;fontSize=15;" vertex="1" parent="a6fe74fMLb0_221A6J_H-1">
          <mxGeometry x="724" y="1310" width="70" height="30" as="geometry" />
        </mxCell>
        <mxCell id="s8RfQ3h4D5lO9OO0TOdr-58" value="5V" style="text;html=1;strokeColor=none;fillColor=none;align=center;verticalAlign=middle;whiteSpace=wrap;rounded=0;" vertex="1" parent="a6fe74fMLb0_221A6J_H-1">
          <mxGeometry x="654" y="1220" width="30" height="20" as="geometry" />
        </mxCell>
        <mxCell id="s8RfQ3h4D5lO9OO0TOdr-60" style="edgeStyle=orthogonalEdgeStyle;rounded=0;orthogonalLoop=1;jettySize=auto;html=1;exitX=0.5;exitY=0;exitDx=0;exitDy=0;entryX=1;entryY=0.5;entryDx=0;entryDy=0;entryPerimeter=0;fontSize=15;endArrow=none;endFill=0;startArrow=none;" edge="1" parent="a6fe74fMLb0_221A6J_H-1" source="s8RfQ3h4D5lO9OO0TOdr-70" target="s8RfQ3h4D5lO9OO0TOdr-52">
          <mxGeometry relative="1" as="geometry">
            <Array as="points">
              <mxPoint x="814" y="1325" />
            </Array>
          </mxGeometry>
        </mxCell>
        <mxCell id="s8RfQ3h4D5lO9OO0TOdr-59" value="GND" style="text;html=1;strokeColor=none;fillColor=none;align=center;verticalAlign=middle;whiteSpace=wrap;rounded=0;" vertex="1" parent="a6fe74fMLb0_221A6J_H-1">
          <mxGeometry x="624" y="1221" width="30" height="19" as="geometry" />
        </mxCell>
        <mxCell id="s8RfQ3h4D5lO9OO0TOdr-61" value="" style="ellipse;fillColor=#000000;strokeColor=none;fontSize=15;" vertex="1" parent="a6fe74fMLb0_221A6J_H-1">
          <mxGeometry x="989" y="1000" width="10" height="10" as="geometry" />
        </mxCell>
        <mxCell id="s8RfQ3h4D5lO9OO0TOdr-63" value="" style="edgeStyle=orthogonalEdgeStyle;rounded=0;orthogonalLoop=1;jettySize=auto;html=1;exitX=1;exitY=0.57;exitDx=0;exitDy=0;exitPerimeter=0;entryX=0.5;entryY=1;entryDx=0;entryDy=0;fontSize=14;endArrow=none;endFill=0;" edge="1" parent="a6fe74fMLb0_221A6J_H-1" source="a6fe74fMLb0_221A6J_H-37" target="s8RfQ3h4D5lO9OO0TOdr-61">
          <mxGeometry relative="1" as="geometry">
            <Array as="points">
              <mxPoint x="554" y="923" />
              <mxPoint x="554" y="1080" />
              <mxPoint x="994" y="1080" />
            </Array>
            <mxPoint x="601.5" y="922.9000000000001" as="sourcePoint" />
            <mxPoint x="994" y="914" as="targetPoint" />
          </mxGeometry>
        </mxCell>
        <mxCell id="s8RfQ3h4D5lO9OO0TOdr-64" value="" style="ellipse;fillColor=#000000;strokeColor=none;fontSize=15;" vertex="1" parent="a6fe74fMLb0_221A6J_H-1">
          <mxGeometry x="989" y="964" width="10" height="10" as="geometry" />
        </mxCell>
        <mxCell id="s8RfQ3h4D5lO9OO0TOdr-65" value="" style="edgeStyle=orthogonalEdgeStyle;rounded=0;orthogonalLoop=1;jettySize=auto;html=1;exitX=0;exitY=0.4;exitDx=0;exitDy=0;exitPerimeter=0;entryX=0.5;entryY=1;entryDx=0;entryDy=0;fontSize=14;endArrow=none;endFill=0;" edge="1" parent="a6fe74fMLb0_221A6J_H-1" source="a6fe74fMLb0_221A6J_H-42" target="s8RfQ3h4D5lO9OO0TOdr-64">
          <mxGeometry relative="1" as="geometry">
            <mxPoint x="709" y="1004" as="sourcePoint" />
            <mxPoint x="994" y="914" as="targetPoint" />
          </mxGeometry>
        </mxCell>
        <mxCell id="s8RfQ3h4D5lO9OO0TOdr-66" value="" style="ellipse;fillColor=#000000;strokeColor=none;fontSize=15;" vertex="1" parent="a6fe74fMLb0_221A6J_H-1">
          <mxGeometry x="389" y="1455" width="10" height="10" as="geometry" />
        </mxCell>
        <mxCell id="s8RfQ3h4D5lO9OO0TOdr-67" value="" style="edgeStyle=orthogonalEdgeStyle;rounded=0;orthogonalLoop=1;jettySize=auto;html=1;exitX=0;exitY=0.5;exitDx=0;exitDy=0;entryX=0;entryY=0.5;entryDx=0;entryDy=0;fontSize=15;endArrow=none;endFill=0;" edge="1" parent="a6fe74fMLb0_221A6J_H-1" source="s8RfQ3h4D5lO9OO0TOdr-7" target="s8RfQ3h4D5lO9OO0TOdr-66">
          <mxGeometry relative="1" as="geometry">
            <mxPoint x="424" y="1355" as="sourcePoint" />
            <mxPoint x="414" y="1505" as="targetPoint" />
            <Array as="points">
              <mxPoint x="394" y="1355" />
              <mxPoint x="394" y="1460" />
            </Array>
          </mxGeometry>
        </mxCell>
        <mxCell id="s8RfQ3h4D5lO9OO0TOdr-68" value="" style="ellipse;fillColor=#000000;strokeColor=none;fontSize=15;" vertex="1" parent="a6fe74fMLb0_221A6J_H-1">
          <mxGeometry x="686.5" y="1455" width="10" height="10" as="geometry" />
        </mxCell>
        <mxCell id="s8RfQ3h4D5lO9OO0TOdr-69" value="" style="edgeStyle=orthogonalEdgeStyle;rounded=0;orthogonalLoop=1;jettySize=auto;html=1;exitX=0;exitY=0.5;exitDx=0;exitDy=0;exitPerimeter=0;entryX=0.5;entryY=0;entryDx=0;entryDy=0;fontSize=15;endArrow=none;endFill=0;" edge="1" parent="a6fe74fMLb0_221A6J_H-1" source="s8RfQ3h4D5lO9OO0TOdr-43" target="s8RfQ3h4D5lO9OO0TOdr-68">
          <mxGeometry relative="1" as="geometry">
            <mxPoint x="944" y="1459" as="sourcePoint" />
            <mxPoint x="691.5" y="1510" as="targetPoint" />
            <Array as="points">
              <mxPoint x="944" y="1455" />
            </Array>
          </mxGeometry>
        </mxCell>
        <mxCell id="s8RfQ3h4D5lO9OO0TOdr-70" value="" style="ellipse;fillColor=#000000;strokeColor=none;fontSize=15;" vertex="1" parent="a6fe74fMLb0_221A6J_H-1">
          <mxGeometry x="809" y="1320" width="10" height="10" as="geometry" />
        </mxCell>
        <mxCell id="s8RfQ3h4D5lO9OO0TOdr-71" value="" style="edgeStyle=orthogonalEdgeStyle;rounded=0;orthogonalLoop=1;jettySize=auto;html=1;exitX=0.5;exitY=0;exitDx=0;exitDy=0;entryX=1;entryY=0.5;entryDx=0;entryDy=0;entryPerimeter=0;fontSize=15;endArrow=none;endFill=0;" edge="1" parent="a6fe74fMLb0_221A6J_H-1" source="s8RfQ3h4D5lO9OO0TOdr-59" target="s8RfQ3h4D5lO9OO0TOdr-70">
          <mxGeometry relative="1" as="geometry">
            <mxPoint x="669" y="1240" as="sourcePoint" />
            <mxPoint x="794" y="1325" as="targetPoint" />
            <Array as="points">
              <mxPoint x="639" y="1200" />
              <mxPoint x="814" y="1200" />
              <mxPoint x="814" y="1325" />
            </Array>
          </mxGeometry>
        </mxCell>
        <mxCell id="s8RfQ3h4D5lO9OO0TOdr-72" value="" style="ellipse;fillColor=#000000;strokeColor=none;fontSize=15;" vertex="1" parent="a6fe74fMLb0_221A6J_H-1">
          <mxGeometry x="774" y="1485" width="10" height="10" as="geometry" />
        </mxCell>
        <mxCell id="s8RfQ3h4D5lO9OO0TOdr-73" value="" style="edgeStyle=orthogonalEdgeStyle;rounded=0;orthogonalLoop=1;jettySize=auto;html=1;exitX=0.5;exitY=0;exitDx=0;exitDy=0;entryX=0.5;entryY=0;entryDx=0;entryDy=0;fontSize=15;endArrow=none;endFill=0;" edge="1" parent="a6fe74fMLb0_221A6J_H-1" source="s8RfQ3h4D5lO9OO0TOdr-34" target="s8RfQ3h4D5lO9OO0TOdr-72">
          <mxGeometry relative="1" as="geometry">
            <mxPoint x="969" y="1510" as="sourcePoint" />
            <mxPoint x="779" y="1510" as="targetPoint" />
            <Array as="points">
              <mxPoint x="969" y="1490" />
            </Array>
          </mxGeometry>
        </mxCell>
        <mxCell id="s8RfQ3h4D5lO9OO0TOdr-74" value="" style="ellipse;fillColor=#000000;strokeColor=none;fontSize=15;" vertex="1" parent="a6fe74fMLb0_221A6J_H-1">
          <mxGeometry x="654" y="1485" width="10" height="10" as="geometry" />
        </mxCell>
        <mxCell id="s8RfQ3h4D5lO9OO0TOdr-81" style="edgeStyle=orthogonalEdgeStyle;rounded=0;orthogonalLoop=1;jettySize=auto;html=1;exitX=0;exitY=0.5;exitDx=0;exitDy=0;entryX=0.5;entryY=0;entryDx=0;entryDy=0;fontSize=15;endArrow=none;endFill=0;" edge="1" parent="a6fe74fMLb0_221A6J_H-1" source="s8RfQ3h4D5lO9OO0TOdr-79" target="s8RfQ3h4D5lO9OO0TOdr-29">
          <mxGeometry relative="1" as="geometry">
            <Array as="points">
              <mxPoint x="274" y="1306" />
              <mxPoint x="274" y="1190" />
              <mxPoint x="859" y="1190" />
            </Array>
          </mxGeometry>
        </mxCell>
        <mxCell id="s8RfQ3h4D5lO9OO0TOdr-79" value="D47" style="text;html=1;strokeColor=none;fillColor=none;align=center;verticalAlign=middle;whiteSpace=wrap;rounded=0;" vertex="1" parent="a6fe74fMLb0_221A6J_H-1">
          <mxGeometry x="424" y="1291" width="30" height="30" as="geometry" />
        </mxCell>
        <mxCell id="s8RfQ3h4D5lO9OO0TOdr-82" style="edgeStyle=orthogonalEdgeStyle;rounded=0;orthogonalLoop=1;jettySize=auto;html=1;exitX=0;exitY=0.5;exitDx=0;exitDy=0;entryX=0.5;entryY=0;entryDx=0;entryDy=0;fontSize=15;endArrow=none;endFill=0;" edge="1" parent="a6fe74fMLb0_221A6J_H-1" source="s8RfQ3h4D5lO9OO0TOdr-80" target="s8RfQ3h4D5lO9OO0TOdr-31">
          <mxGeometry relative="1" as="geometry">
            <Array as="points">
              <mxPoint x="254" y="1325" />
              <mxPoint x="254" y="1170" />
              <mxPoint x="914" y="1170" />
            </Array>
          </mxGeometry>
        </mxCell>
        <mxCell id="s8RfQ3h4D5lO9OO0TOdr-80" value="D45" style="text;html=1;strokeColor=none;fillColor=none;align=center;verticalAlign=middle;whiteSpace=wrap;rounded=0;" vertex="1" parent="a6fe74fMLb0_221A6J_H-1">
          <mxGeometry x="424" y="1310" width="30" height="30" as="geometry" />
        </mxCell>
        <mxCell id="s8RfQ3h4D5lO9OO0TOdr-83" value="" style="ellipse;fillColor=#000000;strokeColor=none;fontSize=15;" vertex="1" parent="a6fe74fMLb0_221A6J_H-1">
          <mxGeometry x="310.25" y="1261" width="10" height="10" as="geometry" />
        </mxCell>
        <mxCell id="s8RfQ3h4D5lO9OO0TOdr-84" value="" style="edgeStyle=orthogonalEdgeStyle;rounded=0;orthogonalLoop=1;jettySize=auto;html=1;exitX=1;exitY=0.57;exitDx=0;exitDy=0;exitPerimeter=0;fontSize=15;endArrow=none;endFill=0;" edge="1" parent="a6fe74fMLb0_221A6J_H-1" source="s8RfQ3h4D5lO9OO0TOdr-48">
          <mxGeometry relative="1" as="geometry">
            <mxPoint x="320.25" y="1263.9" as="sourcePoint" />
            <mxPoint x="314" y="1270" as="targetPoint" />
            <Array as="points">
              <mxPoint x="314" y="1264" />
            </Array>
          </mxGeometry>
        </mxCell>
        <mxCell id="s8RfQ3h4D5lO9OO0TOdr-87" style="edgeStyle=orthogonalEdgeStyle;rounded=0;orthogonalLoop=1;jettySize=auto;html=1;exitX=0.5;exitY=1;exitDx=0;exitDy=0;entryX=0.5;entryY=0;entryDx=0;entryDy=0;fontSize=15;endArrow=none;endFill=0;" edge="1" parent="a6fe74fMLb0_221A6J_H-1" source="s8RfQ3h4D5lO9OO0TOdr-85" target="s8RfQ3h4D5lO9OO0TOdr-28">
          <mxGeometry relative="1" as="geometry">
            <Array as="points">
              <mxPoint x="629" y="1400" />
              <mxPoint x="829" y="1400" />
            </Array>
          </mxGeometry>
        </mxCell>
        <mxCell id="s8RfQ3h4D5lO9OO0TOdr-85" value="12" style="text;html=1;strokeColor=none;fillColor=none;align=center;verticalAlign=middle;whiteSpace=wrap;rounded=0;fontSize=14;" vertex="1" parent="a6fe74fMLb0_221A6J_H-1">
          <mxGeometry x="614" y="1346" width="30" height="24" as="geometry" />
        </mxCell>
        <mxCell id="s8RfQ3h4D5lO9OO0TOdr-88" style="edgeStyle=orthogonalEdgeStyle;rounded=0;orthogonalLoop=1;jettySize=auto;html=1;exitX=0.5;exitY=1;exitDx=0;exitDy=0;entryX=0.5;entryY=0;entryDx=0;entryDy=0;fontSize=15;endArrow=none;endFill=0;" edge="1" parent="a6fe74fMLb0_221A6J_H-1" source="s8RfQ3h4D5lO9OO0TOdr-86" target="s8RfQ3h4D5lO9OO0TOdr-30">
          <mxGeometry relative="1" as="geometry">
            <Array as="points">
              <mxPoint x="654" y="1390" />
              <mxPoint x="889" y="1390" />
            </Array>
          </mxGeometry>
        </mxCell>
        <mxCell id="s8RfQ3h4D5lO9OO0TOdr-86" value="13" style="text;html=1;strokeColor=none;fillColor=none;align=center;verticalAlign=middle;whiteSpace=wrap;rounded=0;fontSize=14;" vertex="1" parent="a6fe74fMLb0_221A6J_H-1">
          <mxGeometry x="639" y="1346" width="30" height="24" as="geometry" />
        </mxCell>
        <mxCell id="s8RfQ3h4D5lO9OO0TOdr-89" value="GND" style="text;html=1;strokeColor=none;fillColor=none;align=center;verticalAlign=middle;whiteSpace=wrap;rounded=0;" vertex="1" parent="a6fe74fMLb0_221A6J_H-1">
          <mxGeometry x="594" y="1221" width="30" height="19" as="geometry" />
        </mxCell>
        <mxCell id="s8RfQ3h4D5lO9OO0TOdr-93" style="edgeStyle=orthogonalEdgeStyle;rounded=0;orthogonalLoop=1;jettySize=auto;html=1;exitX=0.5;exitY=1;exitDx=0;exitDy=0;entryX=0.75;entryY=0;entryDx=0;entryDy=0;fontSize=12;endArrow=none;endFill=0;" edge="1" parent="a6fe74fMLb0_221A6J_H-1" source="s8RfQ3h4D5lO9OO0TOdr-91" target="s8RfQ3h4D5lO9OO0TOdr-92">
          <mxGeometry relative="1" as="geometry" />
        </mxCell>
        <mxCell id="s8RfQ3h4D5lO9OO0TOdr-91" value="5V" style="text;html=1;strokeColor=none;fillColor=none;align=center;verticalAlign=middle;whiteSpace=wrap;rounded=0;" vertex="1" parent="a6fe74fMLb0_221A6J_H-1">
          <mxGeometry x="444" y="1340" width="30" height="30" as="geometry" />
        </mxCell>
        <mxCell id="s8RfQ3h4D5lO9OO0TOdr-94" style="edgeStyle=orthogonalEdgeStyle;rounded=0;orthogonalLoop=1;jettySize=auto;html=1;exitX=0.5;exitY=0;exitDx=0;exitDy=0;entryX=0.5;entryY=0;entryDx=0;entryDy=0;fontSize=12;endArrow=none;endFill=0;" edge="1" parent="a6fe74fMLb0_221A6J_H-1" source="s8RfQ3h4D5lO9OO0TOdr-92" target="s8RfQ3h4D5lO9OO0TOdr-89">
          <mxGeometry relative="1" as="geometry">
            <Array as="points">
              <mxPoint x="199" y="1150" />
              <mxPoint x="609" y="1150" />
            </Array>
          </mxGeometry>
        </mxCell>
        <mxCell id="s8RfQ3h4D5lO9OO0TOdr-92" value="&lt;font style=&quot;font-size: 12px&quot;&gt;Water lever Detection sencer&lt;/font&gt;" style="rounded=0;whiteSpace=wrap;html=1;fontSize=15;fillColor=#f8cecc;strokeColor=#b85450;" vertex="1" parent="a6fe74fMLb0_221A6J_H-1">
          <mxGeometry x="164" y="1414" width="70" height="120" as="geometry" />
        </mxCell>
        <mxCell id="WTg_hZvnaVcCLi7S_lLz-3" style="edgeStyle=orthogonalEdgeStyle;rounded=0;orthogonalLoop=1;jettySize=auto;html=1;exitX=1;exitY=0.57;exitDx=0;exitDy=0;exitPerimeter=0;entryX=1;entryY=0.57;entryDx=0;entryDy=0;entryPerimeter=0;fontSize=12;endArrow=none;endFill=0;" edge="1" parent="a6fe74fMLb0_221A6J_H-1" source="WTg_hZvnaVcCLi7S_lLz-0" target="a6fe74fMLb0_221A6J_H-76">
          <mxGeometry relative="1" as="geometry">
            <Array as="points">
              <mxPoint x="544" y="708" />
              <mxPoint x="544" y="743" />
            </Array>
          </mxGeometry>
        </mxCell>
        <mxCell id="WTg_hZvnaVcCLi7S_lLz-0" value="" style="verticalLabelPosition=bottom;shadow=0;dashed=0;align=center;html=1;verticalAlign=top;shape=mxgraph.electrical.opto_electronics.led_2;pointerEvents=1;fontSize=14;rotation=-180;" vertex="1" parent="a6fe74fMLb0_221A6J_H-1">
          <mxGeometry x="569" y="695" width="50" height="30" as="geometry" />
        </mxCell>
        <mxCell id="WTg_hZvnaVcCLi7S_lLz-4" style="edgeStyle=orthogonalEdgeStyle;rounded=0;orthogonalLoop=1;jettySize=auto;html=1;exitX=1;exitY=0.5;exitDx=0;exitDy=0;exitPerimeter=0;entryX=0;entryY=0.25;entryDx=0;entryDy=0;fontSize=12;endArrow=none;endFill=0;" edge="1" parent="a6fe74fMLb0_221A6J_H-1" source="WTg_hZvnaVcCLi7S_lLz-1" target="a6fe74fMLb0_221A6J_H-36">
          <mxGeometry relative="1" as="geometry">
            <Array as="points">
              <mxPoint x="674" y="730" />
              <mxPoint x="734" y="730" />
              <mxPoint x="734" y="792" />
            </Array>
          </mxGeometry>
        </mxCell>
        <mxCell id="WTg_hZvnaVcCLi7S_lLz-1" value="" style="pointerEvents=1;verticalLabelPosition=bottom;shadow=0;dashed=0;align=center;html=1;verticalAlign=top;shape=mxgraph.electrical.resistors.resistor_2;fontSize=14;" vertex="1" parent="a6fe74fMLb0_221A6J_H-1">
          <mxGeometry x="619" y="703" width="55" height="11" as="geometry" />
        </mxCell>
        <mxCell id="WTg_hZvnaVcCLi7S_lLz-2" value="&amp;nbsp;220Ω" style="text;html=1;strokeColor=none;fillColor=none;align=center;verticalAlign=middle;whiteSpace=wrap;rounded=0;fontSize=14;" vertex="1" parent="a6fe74fMLb0_221A6J_H-1">
          <mxGeometry x="616.5" y="714" width="60" height="30" as="geometry" />
        </mxCell>
        <mxCell id="WTg_hZvnaVcCLi7S_lLz-9" value="Y" style="edgeStyle=orthogonalEdgeStyle;rounded=0;orthogonalLoop=1;jettySize=auto;html=1;exitX=0;exitY=0.5;exitDx=0;exitDy=0;entryX=1;entryY=0.25;entryDx=0;entryDy=0;fontSize=12;endArrow=none;endFill=0;" edge="1" parent="a6fe74fMLb0_221A6J_H-1" source="WTg_hZvnaVcCLi7S_lLz-5" target="WTg_hZvnaVcCLi7S_lLz-8">
          <mxGeometry relative="1" as="geometry" />
        </mxCell>
        <mxCell id="WTg_hZvnaVcCLi7S_lLz-5" value="D27" style="text;html=1;strokeColor=none;fillColor=none;align=center;verticalAlign=middle;whiteSpace=wrap;rounded=0;fontSize=14;" vertex="1" parent="a6fe74fMLb0_221A6J_H-1">
          <mxGeometry x="444" y="261" width="50" height="30" as="geometry" />
        </mxCell>
        <mxCell id="WTg_hZvnaVcCLi7S_lLz-7" value="Ultrasonic Sencer" style="rounded=0;whiteSpace=wrap;html=1;fontSize=12;fillColor=#1ba1e2;fontColor=#ffffff;strokeColor=#006EAF;" vertex="1" parent="a6fe74fMLb0_221A6J_H-1">
          <mxGeometry x="575.25" y="70" width="128.75" height="60" as="geometry" />
        </mxCell>
        <mxCell id="WTg_hZvnaVcCLi7S_lLz-10" value="G" style="edgeStyle=orthogonalEdgeStyle;rounded=0;orthogonalLoop=1;jettySize=auto;html=1;exitX=0.5;exitY=1;exitDx=0;exitDy=0;entryX=0.5;entryY=1;entryDx=0;entryDy=0;fontSize=12;endArrow=none;endFill=0;startArrow=none;" edge="1" parent="a6fe74fMLb0_221A6J_H-1" source="WTg_hZvnaVcCLi7S_lLz-11" target="a6fe74fMLb0_221A6J_H-9">
          <mxGeometry x="-0.9351" y="62" relative="1" as="geometry">
            <Array as="points">
              <mxPoint x="421" y="340" />
              <mxPoint x="684" y="340" />
            </Array>
            <mxPoint x="-61" y="52" as="offset" />
          </mxGeometry>
        </mxCell>
        <mxCell id="WTg_hZvnaVcCLi7S_lLz-15" value="R" style="edgeStyle=orthogonalEdgeStyle;rounded=0;orthogonalLoop=1;jettySize=auto;html=1;exitX=0.5;exitY=0;exitDx=0;exitDy=0;entryX=0.75;entryY=0;entryDx=0;entryDy=0;fontSize=12;endArrow=none;endFill=0;startArrow=none;" edge="1" parent="a6fe74fMLb0_221A6J_H-1" source="WTg_hZvnaVcCLi7S_lLz-8" target="a6fe74fMLb0_221A6J_H-46">
          <mxGeometry x="-0.9023" relative="1" as="geometry">
            <Array as="points">
              <mxPoint x="355" y="180" />
              <mxPoint x="669" y="180" />
            </Array>
            <mxPoint as="offset" />
          </mxGeometry>
        </mxCell>
        <mxCell id="WTg_hZvnaVcCLi7S_lLz-8" value="IR Receiver&lt;br&gt;Module" style="rounded=0;whiteSpace=wrap;html=1;fontSize=12;fillColor=#647687;fontColor=#ffffff;strokeColor=#314354;" vertex="1" parent="a6fe74fMLb0_221A6J_H-1">
          <mxGeometry x="310.25" y="261" width="90" height="60" as="geometry" />
        </mxCell>
        <mxCell id="WTg_hZvnaVcCLi7S_lLz-11" value="" style="ellipse;fillColor=#000000;strokeColor=none;fontSize=15;" vertex="1" parent="a6fe74fMLb0_221A6J_H-1">
          <mxGeometry x="416.5" y="340" width="10" height="10" as="geometry" />
        </mxCell>
        <mxCell id="WTg_hZvnaVcCLi7S_lLz-12" value="" style="edgeStyle=orthogonalEdgeStyle;rounded=0;orthogonalLoop=1;jettySize=auto;html=1;exitX=0.5;exitY=1;exitDx=0;exitDy=0;entryX=0.5;entryY=1;entryDx=0;entryDy=0;fontSize=12;endArrow=none;endFill=0;" edge="1" parent="a6fe74fMLb0_221A6J_H-1" source="WTg_hZvnaVcCLi7S_lLz-8" target="WTg_hZvnaVcCLi7S_lLz-11">
          <mxGeometry x="-0.9532" relative="1" as="geometry">
            <mxPoint x="355.25" y="321" as="sourcePoint" />
            <mxPoint x="684" y="305" as="targetPoint" />
            <Array as="points">
              <mxPoint x="355" y="340" />
              <mxPoint x="421" y="340" />
            </Array>
            <mxPoint as="offset" />
          </mxGeometry>
        </mxCell>
        <mxCell id="WTg_hZvnaVcCLi7S_lLz-16" value="" style="ellipse;fillColor=#000000;strokeColor=none;fontSize=15;" vertex="1" parent="a6fe74fMLb0_221A6J_H-1">
          <mxGeometry x="664" y="180" width="10" height="10" as="geometry" />
        </mxCell>
      </root>
    </mxGraphModel>
  </diagram>
</mxfile>
